<svg width="38" height="61" viewBox="0 0 38 61" fill="none" xmlns="http://www.w3.org/2000/svg">
<path d="M21.7445 60.511H16.9515C21.5048 44.6943 18.8487 23.9647 16.9515 15.5771C20.3066 26.3612 21.5448 50.0264 21.7445 60.511Z" fill="green"/>
<path d="M23.8414 9.88545C20.9657 14.4387 20.6461 24.9633 20.8458 29.6564C20.8458 24.8634 26.0382 18.8722 28.6344 16.4758C26.4775 19.1119 23.9413 26.3612 22.9427 29.6564C23.6617 28.2185 28.0352 24.464 30.1322 22.7665C38.7595 16.5357 37.9207 4.99264 36.4229 -1.71661e-05C29.9524 1.91716 25.3392 7.38912 23.8414 9.88545Z" fill="green"/>
<path d="M0.475829 11.0837C11.0203 11.8026 16.2526 23.9647 17.5507 29.9559C17.0714 28.0387 12.3584 24.1644 10.0617 22.4669C12.9375 25.1031 16.2526 30.7548 17.5507 33.2511L11.26 29.9559C1.43442 25.4026 -0.0234369 15.4772 0.475829 11.0837Z" fill="green"/>
</svg>
