<svg width="204" height="62" viewBox="0 0 204 62" fill="none" xmlns="http://www.w3.org/2000/svg">
<path d="M0 57.8149V37.4449C3.35507 36.4863 7.18943 38.044 8.68722 40.4405L17.3744 53.9207V37.4449C21.2088 36.9656 22.3671 39.442 22.467 40.4405V60.511C17.4344 60.9903 14.7783 58.9133 14.0793 57.8149L5.09251 44.3348V60.511C1.0185 61.2299 0 59.0132 0 57.8149Z" fill="#5D8AA8"/>
<path d="M44.6344 60.511H24.8634V40.4405C24.8634 38.044 26.8605 37.4449 27.859 37.4449H44.6344C45.1137 41.7586 43.6358 42.837 42.837 42.837H30.2555V46.7313H44.6344V50.9251H30.2555V55.4185H42.837C45.2335 56.0176 44.9339 59.2129 44.6344 60.511Z" fill="#5D8AA8"/>
<path d="M57.2159 60.511L46.4317 37.4449C52.1833 36.2467 54.5198 41.0396 56.3172 45.2335L60.2115 54.2203L64.1057 45.2335C67.2212 37.8044 71.7944 36.9457 73.6916 37.4449L63.2071 60.511H57.2159Z" fill="#5D8AA8"/>
<path d="M81.7797 60.511H76.0881V37.7445H92.8634C97.1771 38.2238 97.9559 41.6387 97.9559 43.7357C97.9559 46.4317 96.7577 49.1277 95.859 50.0264C97.5366 50.2661 97.9559 51.9236 97.9559 52.7224V60.511H94.6608C91.9648 60.511 91.9648 56.0176 91.9648 54.5198C91.9648 53.3216 91.3656 52.8223 91.0661 52.7224H81.7797V60.511Z" fill="#5D8AA8"/>
<path d="M89.5678 42.8372C91.0566 42.8372 92.2639 44.0438 92.2641 45.5325C92.2641 47.0215 91.0568 48.2288 89.5678 48.2288H82.0795V42.8372H89.5678Z" fill="white" stroke="#5D8AA8" stroke-width="0.599119"/>
<rect x="102.749" y="40.141" width="17.3744" height="17.9736" rx="4.79295" stroke="#5D8AA8" stroke-width="5.99119"/>
<path d="M140.793 60.511H124.916C124.197 56.9163 126.814 55.4185 127.912 55.1189H138.696C139.894 54.8793 139.994 53.8208 139.894 53.3216C140.134 51.8837 139.195 51.3245 138.696 51.2246H129.11C125.995 51.2246 125.016 48.2291 124.916 46.7313V41.6387C125.396 38.763 127.912 37.8443 129.11 37.7445H144.687C145.167 41.5788 143.489 42.5374 142.59 42.5374H132.405C131.706 42.4376 130.308 42.6572 130.308 44.3348C130.308 46.0123 131.307 46.6314 131.806 46.7313H140.793C144.148 46.9709 145.186 49.2276 145.286 50.326V56.3172C145.286 59.4326 142.291 60.4111 140.793 60.511Z" fill="#5D8AA8"/>
<path d="M166.555 60.511H147.683V37.7445H153.075V55.4185H163.859C166.735 55.6581 166.855 58.9133 166.555 60.511Z" fill="#5D8AA8"/>
<path d="M173.744 60.511H168.952C173.505 44.6943 170.849 23.9647 168.952 15.5771C172.307 26.3612 173.545 50.0264 173.744 60.511Z" fill="#5D8AA8"/>
<path d="M175.841 9.88545C172.966 14.4387 172.646 24.9633 172.846 29.6564C172.846 24.8634 178.038 18.8722 180.634 16.4758C178.478 19.1119 175.941 26.3612 174.943 29.6564C175.662 28.2185 180.035 24.464 182.132 22.7665C190.759 16.5357 189.921 4.99264 188.423 -1.71661e-05C181.952 1.91716 177.339 7.38912 175.841 9.88545Z" fill="#5D8AA8"/>
<path d="M152.476 11.0837C163.02 11.8026 168.253 23.9647 169.551 29.9559C169.071 28.0387 164.358 24.1644 162.062 22.4669C164.938 25.1031 168.253 30.7548 169.551 33.2511L163.26 29.9559C153.434 25.4026 151.977 15.4772 152.476 11.0837Z" fill="#5D8AA8"/>
<path d="M204 37.7445V60.511C199.686 60.511 199.007 58.7136 199.207 57.815V44.3348L193.515 60.511H187.225L181.833 44.3348V57.815C181.593 60.2114 178.138 60.6108 176.441 60.511V37.7445H182.432C183.39 37.7445 185.028 40.1409 185.427 41.3392L190.52 53.9207L195.313 41.3392C195.912 38.9427 198.109 37.8443 198.907 37.7445H204Z" fill="#5D8AA8"/>
</svg>
