<svg width="69" height="68" viewBox="0 0 69 68" fill="none" xmlns="http://www.w3.org/2000/svg">
<path d="M34.5 62.3332C50.148 62.3332 62.8333 49.6479 62.8333 33.9998C62.8333 18.3518 50.148 5.6665 34.5 5.6665C18.8519 5.6665 6.16663 18.3518 6.16663 33.9998C6.16663 49.6479 18.8519 62.3332 34.5 62.3332Z" stroke="#0044FA" stroke-width="3"/>
<path d="M27.4166 31.7329V36.2674C27.4166 40.5721 27.4166 42.7243 28.7079 43.5944C29.9992 44.4642 31.7652 43.5017 35.2975 41.5768L39.4574 39.3093C43.708 36.9927 45.8333 35.8345 45.8333 34.0002C45.8333 32.1659 43.708 31.0076 39.4574 28.6911L35.2975 26.4237C31.7652 24.4986 29.9992 23.536 28.7079 24.406C27.4166 25.2759 27.4166 27.4282 27.4166 31.7329Z" fill="#0044FA"/>
</svg>
