<svg width="385" height="542" viewBox="0 0 385 542" fill="none" xmlns="http://www.w3.org/2000/svg">
<path style="mix-blend-mode:screen" fill-rule="evenodd" clip-rule="evenodd" d="M256.415 362.444C255.615 362.644 254.715 362.544 253.815 362.544C249.315 367.844 243.715 372.744 237.015 377.144C237.015 378.044 236.915 379.044 236.715 380.044C235.915 382.744 234.115 384.944 231.715 386.144C228.515 387.744 224.715 387.644 221.715 385.744C221.582 385.678 221.448 385.578 221.315 385.444C215.382 388.111 208.782 390.511 201.515 392.644C201.315 393.544 201.015 394.344 200.515 395.144C199.215 397.544 197.115 399.244 194.515 399.944C191.715 400.644 189.015 400.144 186.715 398.744C186.015 398.244 185.315 397.644 184.715 397.044C178.315 398.444 171.515 399.711 164.315 400.844C164.015 401.644 163.615 402.444 163.015 403.244C161.415 405.344 159.115 406.744 156.515 407.144C154.215 407.544 151.915 407.044 150.015 405.844C148.915 405.144 147.915 404.244 147.215 403.144C146.948 403.211 146.715 403.244 146.515 403.244C146.648 405.911 146.782 408.578 146.915 411.244C147.115 413.778 147.282 416.311 147.415 418.844C147.748 418.978 148.048 419.144 148.315 419.344C151.115 421.044 152.815 423.844 153.015 426.944C153.115 429.544 152.215 431.944 150.415 433.844C149.715 434.544 148.915 435.144 148.115 435.644C148.315 442.144 148.215 448.544 147.815 454.744C151.115 456.844 152.815 460.444 152.315 464.044C151.915 466.544 150.615 468.844 148.415 470.444C147.615 471.044 146.715 471.444 145.715 471.844C144.415 478.544 142.415 484.944 139.515 490.944C141.515 494.044 141.815 498.044 139.815 501.444L139.715 501.644L139.515 501.844C137.215 504.944 133.515 506.344 129.815 505.744C125.615 510.544 120.515 515.044 114.315 518.944C114.415 519.744 114.315 520.644 114.215 521.444C113.615 524.244 111.715 526.544 109.115 527.844C106.115 529.344 102.515 529.144 99.6151 527.444C99.4151 527.244 99.2151 527.044 98.9151 526.844C93.3818 529.178 87.2151 531.211 80.4151 532.944C80.1151 533.844 79.7151 534.745 79.2151 535.544C77.8151 537.844 75.7151 539.344 73.2151 539.844C70.8151 540.344 68.3151 539.944 66.2151 538.644C64.9151 537.744 63.7151 536.644 62.9151 535.244C62.9151 535.244 62.8818 535.244 62.8151 535.244C61.6151 534.444 60.6151 533.144 60.3151 531.544C60.0151 529.945 60.5151 528.344 61.4151 527.244C62.1151 523.144 64.9151 519.844 68.8151 518.944C71.0151 518.444 73.4151 518.944 75.5151 520.244C76.4151 520.744 77.2151 521.444 77.9151 522.244C84.0151 520.744 89.5151 518.944 94.5151 516.944C94.7151 513.444 96.5151 510.344 99.5151 508.844C101.715 507.744 104.415 507.644 107.115 508.644C107.715 508.944 108.315 509.244 108.915 509.544C108.915 509.544 108.915 509.578 108.915 509.644C113.915 506.444 117.915 502.944 121.415 499.144C119.915 495.944 120.015 492.544 121.815 489.944C123.515 487.144 126.715 485.744 130.115 485.844C132.415 480.944 134.015 475.644 135.115 470.044C132.215 467.944 130.715 464.644 131.115 461.344C131.615 457.844 133.915 455.244 137.015 453.844C137.315 448.144 137.315 442.244 137.215 436.044C136.882 435.911 136.582 435.744 136.315 435.544C133.515 433.844 131.815 431.044 131.715 427.944C131.515 424.444 133.415 421.244 136.415 419.444C136.282 416.978 136.148 414.478 136.015 411.944C135.882 409.411 135.715 406.911 135.515 404.444C132.648 404.711 129.748 404.944 126.815 405.144C126.415 406.044 125.915 406.844 125.315 407.544C123.515 409.544 121.115 410.744 118.515 410.944C116.515 411.044 114.515 410.544 112.715 409.444C111.415 408.644 110.315 407.544 109.515 406.344C108.448 406.411 107.382 406.478 106.315 406.544C102.215 407.744 97.3151 409.344 91.9151 411.444C91.4151 414.944 89.3151 418.044 86.1151 419.344C83.0151 420.544 79.7151 420.244 76.9151 418.544C76.7151 418.411 76.5151 418.278 76.3151 418.144C70.8151 420.744 65.1151 423.844 59.5151 427.444C59.8151 430.944 58.4151 434.444 55.6151 436.444C53.3151 437.944 50.7151 438.544 48.1151 438.044C47.3818 437.911 46.6484 437.711 45.9151 437.444C41.2151 441.444 36.8151 445.844 32.9151 450.644C34.3151 453.744 34.3151 457.344 32.4151 460.244C30.7151 463.144 27.4151 464.744 23.9151 464.644C21.3151 469.944 19.3151 475.644 18.1151 481.744C18.7151 482.211 19.2484 482.711 19.7151 483.244C21.6151 485.444 22.5151 487.944 22.3151 490.344C22.1151 494.244 19.2151 497.544 15.4151 498.944C14.4151 500.044 12.9151 500.744 11.3151 500.744C10.2151 500.744 9.3151 500.444 8.4151 499.944C7.94843 499.611 7.54842 499.244 7.21509 498.844C6.68175 498.644 6.21512 498.411 5.81512 498.144C2.61512 496.144 0.815076 492.544 1.01508 488.844C1.31508 485.644 2.71508 482.944 5.01508 481.344C5.81508 480.844 6.6151 480.444 7.4151 480.144C8.6151 473.944 10.8151 466.844 14.5151 459.444C12.6151 456.344 12.4151 452.244 14.4151 448.844L14.5151 448.644C16.7151 445.344 20.4151 443.844 24.1151 444.244C28.1151 439.044 33.1151 433.744 39.1151 428.644C38.9818 427.911 38.9484 427.144 39.0151 426.344C39.2151 423.344 40.7151 420.744 43.2151 419.044C46.1151 417.044 49.9151 416.744 53.2151 418.244C58.7151 414.644 64.9151 411.244 71.8151 407.944C71.9151 406.944 72.0151 406.044 72.4151 405.144C73.4151 402.644 75.3151 400.644 77.8151 399.644C80.7151 398.444 84.1151 398.744 86.9151 400.444C87.2151 400.644 87.5151 400.944 87.8151 401.144C92.8818 399.278 98.2151 397.511 103.815 395.844C104.282 395.711 104.715 395.611 105.115 395.544C106.382 395.478 107.615 395.411 108.815 395.344C110.415 392.144 113.415 389.844 117.115 389.644C119.115 389.544 121.115 390.044 122.815 391.044C124.115 391.844 125.215 392.944 126.015 394.244C127.348 394.111 128.648 393.978 129.915 393.844C129.848 393.511 129.815 393.144 129.815 392.744C129.715 390.344 130.615 387.944 132.315 386.044C133.015 385.244 133.815 384.744 134.715 384.144C134.515 377.944 134.515 371.644 134.715 365.244C131.615 363.344 129.815 359.944 130.015 356.344C130.215 353.844 131.415 351.544 133.415 349.844C134.115 349.244 135.015 348.744 135.815 348.344C136.515 342.044 137.515 335.644 138.815 329.244C136.215 326.844 135.015 323.244 135.815 319.744L135.915 319.544C136.615 317.044 138.315 315.044 140.615 313.744C141.415 313.344 142.315 313.044 143.215 312.844C145.215 306.778 147.648 300.744 150.515 294.744C148.415 291.644 148.115 287.744 150.015 284.544C151.215 282.344 153.415 280.744 155.915 280.144C156.815 279.844 157.815 279.844 158.715 279.844C162.515 273.844 167.115 268.744 172.215 264.344C172.115 263.444 172.115 262.544 172.215 261.644C172.515 258.944 173.915 256.544 176.115 254.944L176.415 254.744C179.515 252.844 183.315 252.744 186.515 254.644C192.215 251.544 198.215 248.844 204.515 246.644C204.715 245.644 204.915 244.744 205.415 243.844C206.515 241.544 208.515 239.844 210.915 239.044C213.615 238.144 216.415 238.544 218.815 240.044C219.482 240.444 220.115 240.944 220.715 241.544C225.615 240.144 230.515 238.944 235.515 237.744C235.648 237.611 235.748 237.511 235.815 237.444C233.815 230.944 231.915 224.344 230.215 217.644C229.215 217.444 228.315 217.044 227.515 216.544C225.215 215.144 223.615 212.844 223.015 210.244C222.415 207.744 222.915 205.044 224.415 202.744C225.015 201.944 225.715 201.244 226.415 200.544C225.215 193.544 224.315 186.644 224.115 179.644C223.982 179.578 223.815 179.511 223.615 179.444C220.515 177.544 218.715 174.144 218.815 170.544C218.882 169.078 219.248 167.711 219.915 166.444C220.615 165.044 221.515 163.944 222.615 163.044C223.315 162.544 224.015 162.144 224.815 161.744C225.715 154.644 227.415 147.544 230.115 140.644C228.015 137.644 227.515 133.644 229.215 130.144L229.415 129.844C230.815 127.444 233.115 125.644 235.815 124.944C236.715 124.744 237.615 124.744 238.415 124.744C242.282 118.944 246.982 113.411 252.515 108.144C252.315 107.244 252.215 106.344 252.315 105.444C252.415 102.644 253.715 100.144 255.815 98.3444C258.615 95.8444 262.715 95.3445 266.315 96.9445C271.715 93.0778 277.648 89.4111 284.115 85.9445C284.115 85.0444 284.215 84.2445 284.415 83.4445C285.215 80.6444 287.115 78.4445 289.715 77.2445C292.815 75.7445 296.415 75.9445 299.315 77.7445C299.515 77.8778 299.715 78.0445 299.915 78.2445C303.982 76.3778 308.248 74.6111 312.715 72.9445C312.315 66.8778 312.115 60.8111 312.115 54.7444C311.982 54.6778 311.882 54.6111 311.815 54.5444C308.715 52.6444 306.915 49.5444 307.015 46.0444C307.115 43.6444 308.115 41.2444 310.115 39.4445C310.915 38.7444 311.815 38.2444 312.815 37.7444C313.348 31.3444 314.248 24.9778 315.515 18.6444C312.715 16.1444 311.415 12.4444 312.415 8.94445C313.115 6.44445 314.715 4.34445 317.015 3.04445C318.315 2.34445 319.715 1.94444 321.215 1.84444C322.515 1.04444 324.115 0.744445 325.715 1.24444C327.315 1.74444 328.415 2.84445 329.115 4.14445C332.415 6.74445 334.015 10.6444 333.015 14.4444C332.115 17.6444 329.515 20.0444 326.215 20.9444C325.015 26.7444 324.182 32.5778 323.715 38.4445C326.615 40.3445 328.415 43.4444 328.415 46.7444C328.315 50.2444 326.115 53.2444 323.015 54.8444C323.015 57.9778 323.048 61.0778 323.115 64.1444C324.015 63.6444 324.815 63.1444 325.815 62.8444C328.515 61.9444 331.515 62.3445 334.015 63.9445C334.615 64.2778 335.148 64.6778 335.615 65.1444C341.948 63.2111 348.548 61.3778 355.415 59.6444C355.615 58.7444 356.015 57.9444 356.415 57.1444C357.815 54.8444 360.015 53.2444 362.615 52.6444C365.115 51.9444 367.815 52.4444 370.115 53.8444C370.915 54.3444 371.615 54.9444 372.215 55.6444C378.682 54.2444 385.382 52.9111 392.315 51.6444C392.615 50.7444 392.915 49.9444 393.515 49.1444C395.015 46.9444 397.315 45.4445 399.815 45.0444C402.215 44.5444 404.715 45.0444 406.715 46.3444C408.215 47.2444 409.315 48.4444 410.215 49.8444C411.515 50.6444 412.515 51.9445 412.715 53.5444C413.015 55.2444 412.515 56.7444 411.615 57.9445C410.715 61.9445 407.615 65.2444 403.615 66.0444C401.215 66.4444 398.815 65.9445 396.715 64.6444C395.715 64.0444 394.848 63.3111 394.115 62.4445C387.448 63.7111 380.982 65.0111 374.715 66.3444C373.615 69.7444 371.015 72.5444 367.515 73.3444C365.015 73.9444 362.415 73.5444 360.115 72.1444C359.315 71.6444 358.615 71.0444 358.015 70.3444C351.348 72.0111 344.982 73.7444 338.915 75.5444C338.215 79.0444 335.815 82.0444 332.315 83.1444C331.315 83.4445 330.315 83.5444 329.315 83.5444C328.815 85.8444 327.315 87.8444 325.315 89.3444C326.048 95.2778 326.915 101.278 327.915 107.344C328.648 107.544 329.348 107.844 330.015 108.244C332.415 109.744 333.915 112.044 334.415 114.644C335.015 118.144 333.415 121.444 330.715 123.744C331.782 129.744 332.915 135.778 334.115 141.844C334.915 142.144 335.615 142.444 336.315 142.844C338.715 144.344 340.215 146.544 340.715 149.144C341.215 151.544 340.615 154.044 339.215 156.144C338.615 156.944 337.915 157.644 337.115 158.244C337.315 159.244 337.515 160.244 337.715 161.244C337.715 161.378 337.715 161.511 337.715 161.644C338.315 167.744 338.315 173.344 337.915 178.544C340.815 180.744 342.315 184.344 341.715 188.044L341.615 188.244C341.015 190.944 339.415 193.144 336.915 194.544C336.115 195.044 335.215 195.344 334.415 195.544C331.815 202.744 328.115 208.744 323.515 213.944C323.715 214.678 323.815 215.444 323.815 216.244C323.815 217.644 323.615 219.044 323.115 220.244L322.915 220.544C322.315 221.878 321.448 222.978 320.315 223.844C318.115 225.644 315.215 226.444 312.415 225.944C311.515 225.744 310.815 225.444 310.015 225.144C304.515 228.544 298.515 231.444 292.115 233.944C291.915 234.844 291.715 235.844 291.215 236.744C290.115 239.144 288.115 240.844 285.715 241.644C283.115 242.544 280.215 242.244 277.715 240.644C277.048 240.244 276.448 239.778 275.915 239.244C269.915 240.944 263.815 242.444 257.615 243.844C257.415 244.844 257.015 245.744 256.515 246.644C255.315 248.444 253.615 249.844 251.615 250.444C251.748 250.778 251.848 251.111 251.915 251.444C254.015 257.544 256.015 263.644 257.815 269.644C258.948 269.911 260.015 270.344 261.015 270.944C263.115 272.244 264.615 274.244 265.315 276.544C266.115 279.144 265.815 281.844 264.415 284.244C264.015 285.044 263.415 285.744 262.715 286.444C264.515 293.444 266.015 300.344 266.915 307.044C267.315 307.244 267.715 307.478 268.115 307.744C271.015 309.444 272.715 312.444 272.815 315.744C272.915 318.644 271.915 321.344 269.815 323.344C269.215 323.944 268.515 324.444 267.815 324.844C267.515 332.544 266.115 339.844 263.215 346.844C263.715 347.644 264.215 348.444 264.515 349.244C265.415 352.044 265.015 355.044 263.515 357.644C262.215 360.144 259.615 361.944 256.415 362.444ZM241.515 254.844C241.382 254.511 241.282 254.211 241.215 253.944C240.015 253.678 238.848 253.211 237.715 252.544C236.415 251.744 235.315 250.544 234.515 249.244C230.915 250.178 227.315 251.111 223.715 252.044C223.015 255.544 220.715 258.344 217.315 259.344C214.915 260.144 212.115 259.744 209.715 258.344C209.115 257.944 208.548 257.511 208.015 257.044C202.515 259.044 197.115 261.344 192.215 264.044C192.415 267.444 191.015 270.644 188.215 272.444C185.615 274.344 182.115 274.544 179.015 273.044C174.815 276.644 171.215 280.744 168.215 285.444C170.015 288.444 170.315 292.044 168.615 295.044C166.815 298.044 163.715 299.644 160.315 299.744C157.782 305.144 155.615 310.544 153.815 315.944C156.315 318.444 157.415 321.944 156.415 325.144C155.615 328.444 152.915 330.844 149.615 331.744C148.415 337.611 147.482 343.478 146.815 349.344C149.815 351.344 151.515 354.544 151.315 357.844C151.115 361.244 148.815 364.144 145.715 365.644C145.515 371.744 145.515 377.844 145.715 383.844C145.982 383.911 146.248 384.044 146.515 384.244C147.815 385.044 148.915 386.144 149.715 387.444C150.915 386.744 152.115 386.244 153.515 386.044C155.715 385.744 158.015 386.144 160.015 387.444C161.082 388.111 162.015 388.944 162.815 389.944C169.615 388.878 176.048 387.644 182.115 386.244C183.115 382.844 185.715 380.144 189.215 379.344C191.615 378.644 194.315 379.044 196.715 380.444C197.415 380.944 198.015 381.444 198.615 382.044C205.215 380.044 211.215 377.844 216.615 375.444C216.915 371.944 218.715 368.744 221.815 367.244C224.815 365.744 228.315 365.844 231.415 367.644C236.815 364.111 241.315 360.211 244.915 355.944C244.648 355.344 244.448 354.744 244.315 354.144C243.615 351.744 243.915 349.344 245.015 347.044L245.115 346.844C246.415 344.544 248.715 343.044 251.515 342.444C252.048 342.311 252.615 342.211 253.215 342.144C255.315 336.744 256.415 330.944 256.715 324.844C256.648 324.778 256.548 324.711 256.415 324.644C255.948 324.311 255.482 323.978 255.015 323.644C252.915 321.844 251.615 319.344 251.515 316.744C251.415 313.244 253.215 310.144 255.915 308.244C255.115 302.144 253.715 295.744 252.115 289.344C251.015 289.044 250.015 288.644 249.115 288.144C247.015 286.844 245.515 284.844 244.815 282.544C243.815 279.144 244.915 275.544 247.415 272.944C245.515 266.944 243.515 260.944 241.515 254.844ZM323.315 143.844C322.182 137.844 321.048 131.778 319.915 125.644C319.182 125.378 318.448 125.044 317.715 124.644C315.415 123.244 313.815 120.944 313.315 118.244C312.915 115.844 313.515 113.344 315.015 111.244C315.615 110.444 316.315 109.744 317.115 109.144C316.115 102.944 315.215 96.7444 314.415 90.5444C313.882 90.3444 313.348 90.0778 312.815 89.7445C311.315 88.8445 310.115 87.5444 309.315 86.0444C307.648 86.7111 306.015 87.4111 304.415 88.1444C304.115 91.6444 302.215 94.9445 298.915 96.4445C296.515 97.6444 293.715 97.6444 291.015 96.5444C290.515 96.3444 289.915 96.0445 289.315 95.7445C289.248 95.6778 289.182 95.6111 289.115 95.5444C283.182 98.7444 277.748 102.111 272.815 105.644C273.215 108.944 272.115 112.344 269.615 114.644C266.915 116.944 263.215 117.544 259.815 116.344C255.148 120.811 251.148 125.511 247.815 130.444C249.615 133.444 249.815 137.044 248.215 139.944C246.615 142.944 243.615 144.744 240.215 145.044C237.915 150.844 236.515 156.744 235.715 162.844C236.315 163.244 236.848 163.678 237.315 164.144C238.248 165.144 238.948 166.211 239.415 167.344C239.948 168.611 240.215 169.944 240.215 171.344C240.115 174.744 238.015 177.744 235.015 179.544C235.215 185.744 236.015 192.044 237.115 198.444C237.915 198.744 238.715 199.044 239.415 199.544C241.715 200.944 243.315 203.144 243.915 205.644C244.615 209.244 243.315 212.644 240.815 215.044C242.148 220.111 243.582 225.178 245.115 230.244C245.415 230.244 245.615 230.044 245.915 230.044C248.315 229.444 250.815 229.944 252.915 231.244C253.715 231.744 254.515 232.444 255.215 233.244C261.215 231.744 267.115 230.344 272.815 228.744C273.515 225.344 275.715 222.544 278.915 221.444C281.515 220.544 284.415 220.944 286.815 222.444C287.415 222.778 287.948 223.178 288.415 223.644C293.915 221.444 299.015 219.044 303.615 216.144C303.548 215.544 303.515 214.911 303.515 214.244C303.615 211.444 304.715 208.944 306.715 207.344C307.782 206.544 308.982 206.011 310.315 205.744C311.448 205.478 312.648 205.411 313.915 205.544C314.515 205.611 315.082 205.744 315.615 205.944C319.015 202.044 321.715 197.644 323.615 192.444C321.215 190.144 320.115 186.944 320.715 183.944C321.315 180.744 323.715 178.244 326.915 177.044C327.315 172.644 327.315 168.044 326.815 162.944C326.682 162.078 326.515 161.211 326.315 160.344C325.615 160.044 324.815 159.744 324.115 159.244C321.815 157.844 320.215 155.644 319.715 153.044C319.215 150.444 320.015 147.644 321.715 145.444C322.182 144.844 322.715 144.311 323.315 143.844Z" fill="#5D8AA8" fill-opacity="0.15"/>
<path fill-rule="evenodd" clip-rule="evenodd" d="M256.415 362.444C255.615 362.644 254.715 362.544 253.815 362.544C249.315 367.844 243.715 372.744 237.015 377.144C237.015 378.044 236.915 379.044 236.715 380.044C235.915 382.744 234.115 384.944 231.715 386.144C228.515 387.744 224.715 387.644 221.715 385.744C221.582 385.678 221.448 385.578 221.315 385.444C215.382 388.111 208.782 390.511 201.515 392.644C201.315 393.544 201.015 394.344 200.515 395.144C199.215 397.544 197.115 399.244 194.515 399.944C191.715 400.644 189.015 400.144 186.715 398.744C186.015 398.244 185.315 397.644 184.715 397.044C178.315 398.444 171.515 399.711 164.315 400.844C164.015 401.644 163.615 402.444 163.015 403.244C161.415 405.344 159.115 406.744 156.515 407.144C154.215 407.544 151.915 407.044 150.015 405.844C148.915 405.144 147.915 404.244 147.215 403.144C146.948 403.211 146.715 403.244 146.515 403.244C146.648 405.911 146.782 408.578 146.915 411.244C147.115 413.778 147.282 416.311 147.415 418.844C147.748 418.978 148.048 419.144 148.315 419.344C151.115 421.044 152.815 423.844 153.015 426.944C153.115 429.544 152.215 431.944 150.415 433.844C149.715 434.544 148.915 435.144 148.115 435.644C148.315 442.144 148.215 448.544 147.815 454.744C151.115 456.844 152.815 460.444 152.315 464.044C151.915 466.544 150.615 468.844 148.415 470.444C147.615 471.044 146.715 471.444 145.715 471.844C144.415 478.544 142.415 484.944 139.515 490.944C141.515 494.044 141.815 498.044 139.815 501.444L139.715 501.644L139.515 501.844C137.215 504.944 133.515 506.344 129.815 505.744C125.615 510.544 120.515 515.044 114.315 518.944C114.415 519.744 114.315 520.644 114.215 521.444C113.615 524.244 111.715 526.544 109.115 527.844C106.115 529.344 102.515 529.144 99.6151 527.444C99.4151 527.244 99.2151 527.044 98.9151 526.844C93.3818 529.178 87.2151 531.211 80.4151 532.944C80.1151 533.844 79.7151 534.744 79.2151 535.544C77.8151 537.844 75.7151 539.344 73.2151 539.844C70.8151 540.344 68.3151 539.944 66.2151 538.644C64.9151 537.744 63.7151 536.644 62.9151 535.244C62.9151 535.244 62.8818 535.244 62.8151 535.244C61.6151 534.444 60.6151 533.144 60.3151 531.544C60.0151 529.944 60.5151 528.344 61.4151 527.244C62.1151 523.144 64.9151 519.844 68.8151 518.944C71.0151 518.444 73.4151 518.944 75.5151 520.244C76.4151 520.744 77.2151 521.444 77.9151 522.244C84.0151 520.744 89.5151 518.944 94.5151 516.944C94.7151 513.444 96.5151 510.344 99.5151 508.844C101.715 507.744 104.415 507.644 107.115 508.644C107.715 508.944 108.315 509.244 108.915 509.544C108.915 509.544 108.915 509.578 108.915 509.644C113.915 506.444 117.915 502.944 121.415 499.144C119.915 495.944 120.015 492.544 121.815 489.944C123.515 487.144 126.715 485.744 130.115 485.844C132.415 480.944 134.015 475.644 135.115 470.044C132.215 467.944 130.715 464.644 131.115 461.344C131.615 457.844 133.915 455.244 137.015 453.844C137.315 448.144 137.315 442.244 137.215 436.044C136.882 435.911 136.582 435.744 136.315 435.544C133.515 433.844 131.815 431.044 131.715 427.944C131.515 424.444 133.415 421.244 136.415 419.444C136.282 416.978 136.148 414.478 136.015 411.944C135.882 409.411 135.715 406.911 135.515 404.444C132.648 404.711 129.748 404.944 126.815 405.144C126.415 406.044 125.915 406.844 125.315 407.544C123.515 409.544 121.115 410.744 118.515 410.944C116.515 411.044 114.515 410.544 112.715 409.444C111.415 408.644 110.315 407.544 109.515 406.344C108.448 406.411 107.382 406.478 106.315 406.544C102.215 407.744 97.3151 409.344 91.9151 411.444C91.4151 414.944 89.3151 418.044 86.1151 419.344C83.0151 420.544 79.7151 420.244 76.9151 418.544C76.7151 418.411 76.5151 418.278 76.3151 418.144C70.8151 420.744 65.1151 423.844 59.5151 427.444C59.8151 430.944 58.4151 434.444 55.6151 436.444C53.3151 437.944 50.7151 438.544 48.1151 438.044C47.3818 437.911 46.6484 437.711 45.9151 437.444C41.2151 441.444 36.8151 445.844 32.9151 450.644C34.3151 453.744 34.3151 457.344 32.4151 460.244C30.7151 463.144 27.4151 464.744 23.9151 464.644C21.3151 469.944 19.3151 475.644 18.1151 481.744C18.7151 482.211 19.2484 482.711 19.7151 483.244C21.6151 485.444 22.5151 487.944 22.3151 490.344C22.1151 494.244 19.2151 497.544 15.4151 498.944C14.4151 500.044 12.9151 500.744 11.3151 500.744C10.2151 500.744 9.3151 500.444 8.4151 499.944C7.94843 499.611 7.54842 499.244 7.21509 498.844C6.68175 498.644 6.21512 498.411 5.81512 498.144C2.61512 496.144 0.815075 492.544 1.01508 488.844C1.31508 485.644 2.71508 482.944 5.01508 481.344C5.81508 480.844 6.6151 480.444 7.4151 480.144C8.6151 473.944 10.8151 466.844 14.5151 459.444C12.6151 456.344 12.4151 452.244 14.4151 448.844L14.5151 448.644C16.7151 445.344 20.4151 443.844 24.1151 444.244C28.1151 439.044 33.1151 433.744 39.1151 428.644C38.9818 427.911 38.9484 427.144 39.0151 426.344C39.2151 423.344 40.7151 420.744 43.2151 419.044C46.1151 417.044 49.9151 416.744 53.2151 418.244C58.7151 414.644 64.9151 411.244 71.8151 407.944C71.9151 406.944 72.0151 406.044 72.4151 405.144C73.4151 402.644 75.3151 400.644 77.8151 399.644C80.7151 398.444 84.1151 398.744 86.9151 400.444C87.2151 400.644 87.5151 400.944 87.8151 401.144C92.8818 399.278 98.2151 397.511 103.815 395.844C104.282 395.711 104.715 395.611 105.115 395.544C106.382 395.478 107.615 395.411 108.815 395.344C110.415 392.144 113.415 389.844 117.115 389.644C119.115 389.544 121.115 390.044 122.815 391.044C124.115 391.844 125.215 392.944 126.015 394.244C127.348 394.111 128.648 393.978 129.915 393.844C129.848 393.511 129.815 393.144 129.815 392.744C129.715 390.344 130.615 387.944 132.315 386.044C133.015 385.244 133.815 384.744 134.715 384.144C134.515 377.944 134.515 371.644 134.715 365.244C131.615 363.344 129.815 359.944 130.015 356.344C130.215 353.844 131.415 351.544 133.415 349.844C134.115 349.244 135.015 348.744 135.815 348.344C136.515 342.044 137.515 335.644 138.815 329.244C136.215 326.844 135.015 323.244 135.815 319.744L135.915 319.544C136.615 317.044 138.315 315.044 140.615 313.744C141.415 313.344 142.315 313.044 143.215 312.844C145.215 306.778 147.648 300.744 150.515 294.744C148.415 291.644 148.115 287.744 150.015 284.544C151.215 282.344 153.415 280.744 155.915 280.144C156.815 279.844 157.815 279.844 158.715 279.844C162.515 273.844 167.115 268.744 172.215 264.344C172.115 263.444 172.115 262.544 172.215 261.644C172.515 258.944 173.915 256.544 176.115 254.944L176.415 254.744C179.515 252.844 183.315 252.744 186.515 254.644C192.215 251.544 198.215 248.844 204.515 246.644C204.715 245.644 204.915 244.744 205.415 243.844C206.515 241.544 208.515 239.844 210.915 239.044C213.615 238.144 216.415 238.544 218.815 240.044C219.482 240.444 220.115 240.944 220.715 241.544C225.615 240.144 230.515 238.944 235.515 237.744C235.648 237.611 235.748 237.511 235.815 237.444C233.815 230.944 231.915 224.344 230.215 217.644C229.215 217.444 228.315 217.044 227.515 216.544C225.215 215.144 223.615 212.844 223.015 210.244C222.415 207.744 222.915 205.044 224.415 202.744C225.015 201.944 225.715 201.244 226.415 200.544C225.215 193.544 224.315 186.644 224.115 179.644C223.982 179.578 223.815 179.511 223.615 179.444C220.515 177.544 218.715 174.144 218.815 170.544C218.882 169.078 219.248 167.711 219.915 166.444C220.615 165.044 221.515 163.944 222.615 163.044C223.315 162.544 224.015 162.144 224.815 161.744C225.715 154.644 227.415 147.544 230.115 140.644C228.015 137.644 227.515 133.644 229.215 130.144L229.415 129.844C230.815 127.444 233.115 125.644 235.815 124.944C236.715 124.744 237.615 124.744 238.415 124.744C242.282 118.944 246.982 113.411 252.515 108.144C252.315 107.244 252.215 106.344 252.315 105.444C252.415 102.644 253.715 100.144 255.815 98.3444C258.615 95.8444 262.715 95.3445 266.315 96.9445C271.715 93.0778 277.648 89.4111 284.115 85.9445C284.115 85.0445 284.215 84.2445 284.415 83.4445C285.215 80.6445 287.115 78.4445 289.715 77.2445C292.815 75.7445 296.415 75.9445 299.315 77.7445C299.515 77.8778 299.715 78.0445 299.915 78.2445C303.982 76.3778 308.248 74.6111 312.715 72.9445C312.315 66.8778 312.115 60.8111 312.115 54.7444C311.982 54.6778 311.882 54.6111 311.815 54.5444C308.715 52.6444 306.915 49.5444 307.015 46.0444C307.115 43.6444 308.115 41.2445 310.115 39.4445C310.915 38.7445 311.815 38.2444 312.815 37.7444C313.348 31.3444 314.248 24.9778 315.515 18.6444C312.715 16.1444 311.415 12.4444 312.415 8.94445C313.115 6.44445 314.715 4.34445 317.015 3.04445C318.315 2.34445 319.715 1.94444 321.215 1.84444C322.515 1.04444 324.115 0.744445 325.715 1.24444C327.315 1.74444 328.415 2.84445 329.115 4.14445C332.415 6.74445 334.015 10.6444 333.015 14.4444C332.115 17.6444 329.515 20.0444 326.215 20.9444C325.015 26.7444 324.182 32.5778 323.715 38.4445C326.615 40.3445 328.415 43.4444 328.415 46.7444C328.315 50.2444 326.115 53.2444 323.015 54.8444C323.015 57.9778 323.048 61.0778 323.115 64.1444C324.015 63.6444 324.815 63.1444 325.815 62.8444C328.515 61.9444 331.515 62.3445 334.015 63.9445C334.615 64.2778 335.148 64.6778 335.615 65.1444C341.948 63.2111 348.548 61.3778 355.415 59.6444C355.615 58.7444 356.015 57.9444 356.415 57.1444C357.815 54.8444 360.015 53.2444 362.615 52.6444C365.115 51.9444 367.815 52.4444 370.115 53.8444C370.915 54.3444 371.615 54.9444 372.215 55.6444C378.682 54.2444 385.382 52.9111 392.315 51.6444C392.615 50.7444 392.915 49.9444 393.515 49.1444C395.015 46.9444 397.315 45.4444 399.815 45.0444C402.215 44.5444 404.715 45.0444 406.715 46.3444C408.215 47.2444 409.315 48.4444 410.215 49.8444C411.515 50.6444 412.515 51.9444 412.715 53.5444C413.015 55.2444 412.515 56.7445 411.615 57.9445C410.715 61.9445 407.615 65.2444 403.615 66.0444C401.215 66.4444 398.815 65.9444 396.715 64.6444C395.715 64.0444 394.848 63.3111 394.115 62.4445C387.448 63.7111 380.982 65.0111 374.715 66.3444C373.615 69.7444 371.015 72.5444 367.515 73.3444C365.015 73.9444 362.415 73.5444 360.115 72.1444C359.315 71.6444 358.615 71.0444 358.015 70.3444C351.348 72.0111 344.982 73.7444 338.915 75.5444C338.215 79.0444 335.815 82.0444 332.315 83.1444C331.315 83.4444 330.315 83.5444 329.315 83.5444C328.815 85.8444 327.315 87.8444 325.315 89.3444C326.048 95.2778 326.915 101.278 327.915 107.344C328.648 107.544 329.348 107.844 330.015 108.244C332.415 109.744 333.915 112.044 334.415 114.644C335.015 118.144 333.415 121.444 330.715 123.744C331.782 129.744 332.915 135.778 334.115 141.844C334.915 142.144 335.615 142.444 336.315 142.844C338.715 144.344 340.215 146.544 340.715 149.144C341.215 151.544 340.615 154.044 339.215 156.144C338.615 156.944 337.915 157.644 337.115 158.244C337.315 159.244 337.515 160.244 337.715 161.244C337.715 161.378 337.715 161.511 337.715 161.644C338.315 167.744 338.315 173.344 337.915 178.544C340.815 180.744 342.315 184.344 341.715 188.044L341.615 188.244C341.015 190.944 339.415 193.144 336.915 194.544C336.115 195.044 335.215 195.344 334.415 195.544C331.815 202.744 328.115 208.744 323.515 213.944C323.715 214.678 323.815 215.444 323.815 216.244C323.815 217.644 323.615 219.044 323.115 220.244L322.915 220.544C322.315 221.878 321.448 222.978 320.315 223.844C318.115 225.644 315.215 226.444 312.415 225.944C311.515 225.744 310.815 225.444 310.015 225.144C304.515 228.544 298.515 231.444 292.115 233.944C291.915 234.844 291.715 235.844 291.215 236.744C290.115 239.144 288.115 240.844 285.715 241.644C283.115 242.544 280.215 242.244 277.715 240.644C277.048 240.244 276.448 239.778 275.915 239.244C269.915 240.944 263.815 242.444 257.615 243.844C257.415 244.844 257.015 245.744 256.515 246.644C255.315 248.444 253.615 249.844 251.615 250.444C251.748 250.778 251.848 251.111 251.915 251.444C254.015 257.544 256.015 263.644 257.815 269.644C258.948 269.911 260.015 270.344 261.015 270.944C263.115 272.244 264.615 274.244 265.315 276.544C266.115 279.144 265.815 281.844 264.415 284.244C264.015 285.044 263.415 285.744 262.715 286.444C264.515 293.444 266.015 300.344 266.915 307.044C267.315 307.244 267.715 307.478 268.115 307.744C271.015 309.444 272.715 312.444 272.815 315.744C272.915 318.644 271.915 321.344 269.815 323.344C269.215 323.944 268.515 324.444 267.815 324.844C267.515 332.544 266.115 339.844 263.215 346.844C263.715 347.644 264.215 348.444 264.515 349.244C265.415 352.044 265.015 355.044 263.515 357.644C262.215 360.144 259.615 361.944 256.415 362.444ZM241.515 254.844C241.382 254.511 241.282 254.211 241.215 253.944C240.015 253.678 238.848 253.211 237.715 252.544C236.415 251.744 235.315 250.544 234.515 249.244C230.915 250.178 227.315 251.111 223.715 252.044C223.015 255.544 220.715 258.344 217.315 259.344C214.915 260.144 212.115 259.744 209.715 258.344C209.115 257.944 208.548 257.511 208.015 257.044C202.515 259.044 197.115 261.344 192.215 264.044C192.415 267.444 191.015 270.644 188.215 272.444C185.615 274.344 182.115 274.544 179.015 273.044C174.815 276.644 171.215 280.744 168.215 285.444C170.015 288.444 170.315 292.044 168.615 295.044C166.815 298.044 163.715 299.644 160.315 299.744C157.782 305.144 155.615 310.544 153.815 315.944C156.315 318.444 157.415 321.944 156.415 325.144C155.615 328.444 152.915 330.844 149.615 331.744C148.415 337.611 147.482 343.478 146.815 349.344C149.815 351.344 151.515 354.544 151.315 357.844C151.115 361.244 148.815 364.144 145.715 365.644C145.515 371.744 145.515 377.844 145.715 383.844C145.982 383.911 146.248 384.044 146.515 384.244C147.815 385.044 148.915 386.144 149.715 387.444C150.915 386.744 152.115 386.244 153.515 386.044C155.715 385.744 158.015 386.144 160.015 387.444C161.082 388.111 162.015 388.944 162.815 389.944C169.615 388.878 176.048 387.644 182.115 386.244C183.115 382.844 185.715 380.144 189.215 379.344C191.615 378.644 194.315 379.044 196.715 380.444C197.415 380.944 198.015 381.444 198.615 382.044C205.215 380.044 211.215 377.844 216.615 375.444C216.915 371.944 218.715 368.744 221.815 367.244C224.815 365.744 228.315 365.844 231.415 367.644C236.815 364.111 241.315 360.211 244.915 355.944C244.648 355.344 244.448 354.744 244.315 354.144C243.615 351.744 243.915 349.344 245.015 347.044L245.115 346.844C246.415 344.544 248.715 343.044 251.515 342.444C252.048 342.311 252.615 342.211 253.215 342.144C255.315 336.744 256.415 330.944 256.715 324.844C256.648 324.778 256.548 324.711 256.415 324.644C255.948 324.311 255.482 323.978 255.015 323.644C252.915 321.844 251.615 319.344 251.515 316.744C251.415 313.244 253.215 310.144 255.915 308.244C255.115 302.144 253.715 295.744 252.115 289.344C251.015 289.044 250.015 288.644 249.115 288.144C247.015 286.844 245.515 284.844 244.815 282.544C243.815 279.144 244.915 275.544 247.415 272.944C245.515 266.944 243.515 260.944 241.515 254.844ZM323.315 143.844C322.182 137.844 321.048 131.778 319.915 125.644C319.182 125.378 318.448 125.044 317.715 124.644C315.415 123.244 313.815 120.944 313.315 118.244C312.915 115.844 313.515 113.344 315.015 111.244C315.615 110.444 316.315 109.744 317.115 109.144C316.115 102.944 315.215 96.7444 314.415 90.5444C313.882 90.3444 313.348 90.0778 312.815 89.7445C311.315 88.8445 310.115 87.5444 309.315 86.0444C307.648 86.7111 306.015 87.4111 304.415 88.1444C304.115 91.6444 302.215 94.9445 298.915 96.4445C296.515 97.6445 293.715 97.6444 291.015 96.5444C290.515 96.3444 289.915 96.0445 289.315 95.7445C289.248 95.6778 289.182 95.6111 289.115 95.5444C283.182 98.7444 277.748 102.111 272.815 105.644C273.215 108.944 272.115 112.344 269.615 114.644C266.915 116.944 263.215 117.544 259.815 116.344C255.148 120.811 251.148 125.511 247.815 130.444C249.615 133.444 249.815 137.044 248.215 139.944C246.615 142.944 243.615 144.744 240.215 145.044C237.915 150.844 236.515 156.744 235.715 162.844C236.315 163.244 236.848 163.678 237.315 164.144C238.248 165.144 238.948 166.211 239.415 167.344C239.948 168.611 240.215 169.944 240.215 171.344C240.115 174.744 238.015 177.744 235.015 179.544C235.215 185.744 236.015 192.044 237.115 198.444C237.915 198.744 238.715 199.044 239.415 199.544C241.715 200.944 243.315 203.144 243.915 205.644C244.615 209.244 243.315 212.644 240.815 215.044C242.148 220.111 243.582 225.178 245.115 230.244C245.415 230.244 245.615 230.044 245.915 230.044C248.315 229.444 250.815 229.944 252.915 231.244C253.715 231.744 254.515 232.444 255.215 233.244C261.215 231.744 267.115 230.344 272.815 228.744C273.515 225.344 275.715 222.544 278.915 221.444C281.515 220.544 284.415 220.944 286.815 222.444C287.415 222.778 287.948 223.178 288.415 223.644C293.915 221.444 299.015 219.044 303.615 216.144C303.548 215.544 303.515 214.911 303.515 214.244C303.615 211.444 304.715 208.944 306.715 207.344C307.782 206.544 308.982 206.011 310.315 205.744C311.448 205.478 312.648 205.411 313.915 205.544C314.515 205.611 315.082 205.744 315.615 205.944C319.015 202.044 321.715 197.644 323.615 192.444C321.215 190.144 320.115 186.944 320.715 183.944C321.315 180.744 323.715 178.244 326.915 177.044C327.315 172.644 327.315 168.044 326.815 162.944C326.682 162.078 326.515 161.211 326.315 160.344C325.615 160.044 324.815 159.744 324.115 159.244C321.815 157.844 320.215 155.644 319.715 153.044C319.215 150.444 320.015 147.644 321.715 145.444C322.182 144.844 322.715 144.311 323.315 143.844Z" stroke="#5D8AA8" stroke-opacity="0.15" stroke-width="2" stroke-miterlimit="10"/>
<path d="M333.015 14.4443L398.215 47.7443" stroke="#5D8AA8" stroke-opacity="0.15" stroke-width="2" stroke-miterlimit="10"/>
<path d="M328.415 46.7446L362.615 52.6446" stroke="#5D8AA8" stroke-opacity="0.15" stroke-width="2" stroke-miterlimit="10"/>
<path d="M298.915 96.4443L313.915 114.844" stroke="#5D8AA8" stroke-opacity="0.15" stroke-width="2" stroke-miterlimit="10"/>
<path d="M269.615 114.645L319.715 153.045" stroke="#5D8AA8" stroke-opacity="0.15" stroke-width="2" stroke-miterlimit="10"/>
<path d="M248.215 139.944L320.715 183.944" stroke="#5D8AA8" stroke-opacity="0.15" stroke-width="2" stroke-miterlimit="10"/>
<path d="M240.215 171.344L306.715 207.344" stroke="#5D8AA8" stroke-opacity="0.15" stroke-width="2" stroke-miterlimit="10"/>
<path d="M243.915 205.645L278.915 221.445" stroke="#5D8AA8" stroke-opacity="0.15" stroke-width="2" stroke-miterlimit="10"/>
<path d="M220.515 257.145L244.815 276.545" stroke="#5D8AA8" stroke-opacity="0.15" stroke-width="2" stroke-miterlimit="10"/>
<path d="M188.215 272.444L251.515 312.644" stroke="#5D8AA8" stroke-opacity="0.15" stroke-width="2" stroke-miterlimit="10"/>
<path d="M168.615 295.044L245.115 346.844" stroke="#5D8AA8" stroke-opacity="0.15" stroke-width="2" stroke-miterlimit="10"/>
<path d="M156.415 325.145L221.815 367.245" stroke="#5D8AA8" stroke-opacity="0.15" stroke-width="2" stroke-miterlimit="10"/>
<path d="M151.315 357.844L189.215 379.344" stroke="#5D8AA8" stroke-opacity="0.15" stroke-width="2" stroke-miterlimit="10"/>
<path d="M118.515 410.944L132.315 423.844" stroke="#5D8AA8" stroke-opacity="0.15" stroke-width="2" stroke-miterlimit="10"/>
<path d="M86.1151 419.344L131.115 461.344" stroke="#5D8AA8" stroke-opacity="0.15" stroke-width="2" stroke-miterlimit="10"/>
<path d="M55.6151 436.444L121.815 489.944" stroke="#5D8AA8" stroke-opacity="0.15" stroke-width="2" stroke-miterlimit="10"/>
<path d="M32.415 460.245L99.515 508.845" stroke="#5D8AA8" stroke-opacity="0.15" stroke-width="2" stroke-miterlimit="10"/>
<path d="M22.3152 490.344L68.8152 518.944" stroke="#5D8AA8" stroke-opacity="0.15" stroke-width="2" stroke-miterlimit="10"/>
</svg>
