<svg xmlns="http://www.w3.org/2000/svg" fill="none" viewBox="22.29299363057325 4.906 182.35668789808918 196.686" style="max-height: 500px" width="182.35668789808918" height="196.686">
<g filter="url(#filter0_d_9_10)">
<rect shape-rendering="crispEdges" fill="white" transform="rotate(10.6069 59.1313 16)" rx="16.062" height="152.83" width="135.912" y="16" x="59.1313"/>
<path fill="#003262" d="M78.2857 34.4865L75.8439 34.0292L74.5923 40.7126L73.5766 40.5224L74.8282 33.839L72.3812 33.3808L72.5418 32.523L78.4463 33.6287L78.2857 34.4865ZM80.2888 39.2955C79.8547 39.2287 79.4797 39.1948 79.164 39.1938C78.8524 39.1899 78.5919 39.2138 78.3826 39.2654C78.1767 39.3176 78.0187 39.3951 77.9087 39.498C77.8021 39.6015 77.7351 39.7269 77.7075 39.8743C77.6812 40.0146 77.6813 40.1399 77.7079 40.2502C77.7344 40.3605 77.7801 40.4562 77.8448 40.5373C77.9136 40.6156 77.9977 40.6804 78.0971 40.7316C78.2006 40.7801 78.3137 40.8158 78.4365 40.8388C78.6014 40.8697 78.7552 40.8821 78.898 40.8762C79.0414 40.8667 79.1786 40.8416 79.3097 40.8008C79.4443 40.7606 79.5742 40.7069 79.6994 40.6395C79.8281 40.5728 79.9556 40.4932 80.0819 40.4007L80.2888 39.2955ZM77.6709 36.5502C78.0188 36.3212 78.3761 36.1684 78.7427 36.0918C79.1092 36.0152 79.4995 36.0157 79.9135 36.0932C80.2117 36.149 80.4674 36.2477 80.6806 36.3893C80.8937 36.5309 81.0628 36.7042 81.1878 36.9092C81.3129 37.1142 81.3924 37.3488 81.4264 37.613C81.4605 37.8772 81.4496 38.1584 81.3937 38.4566L80.7551 41.8667L80.3394 41.7889C80.2482 41.7718 80.1806 41.7446 80.1368 41.7073C80.0936 41.6666 80.0661 41.5997 80.0545 41.5067L80.0439 40.9818C79.8792 41.0853 79.7207 41.1755 79.5683 41.2523C79.4166 41.3255 79.2605 41.3835 79.1 41.426C78.9402 41.4651 78.7728 41.4864 78.5978 41.49C78.4257 41.4977 78.2379 41.4825 78.0344 41.4444C77.8274 41.4056 77.638 41.3411 77.4661 41.2508C77.2948 41.157 77.1516 41.0394 77.0364 40.898C76.9248 40.7572 76.8451 40.5916 76.7972 40.4011C76.7535 40.2077 76.7544 39.99 76.7997 39.7479C76.8391 39.5374 76.9348 39.3465 77.0867 39.1752C77.2393 39.0004 77.4595 38.8619 77.7474 38.7597C78.0352 38.6574 78.3968 38.598 78.832 38.5815C79.2679 38.5614 79.7906 38.6012 80.4002 38.7009L80.4781 38.2851C80.5556 37.8711 80.5246 37.5421 80.3851 37.2981C80.2462 37.0506 80.0049 36.8947 79.6611 36.8303C79.4295 36.7869 79.2292 36.7803 79.0602 36.8104C78.8953 36.8376 78.7481 36.8772 78.6185 36.9292C78.4931 36.9783 78.3827 37.0248 78.2874 37.0687C78.1961 37.1097 78.1102 37.1227 78.0295 37.1076C77.9664 37.0957 77.9149 37.0698 77.8752 37.0297C77.8362 36.986 77.8055 36.9367 77.7831 36.8817L77.6709 36.5502ZM84.9138 42.0027C85.44 42.1013 85.8677 42.0089 86.1967 41.7255C86.5299 41.4393 86.753 40.9945 86.866 40.3911C86.9784 39.7911 86.9363 39.2985 86.7397 38.913C86.5467 38.5283 86.1923 38.2876 85.6766 38.191C85.4275 38.1444 85.1954 38.1427 84.9803 38.1859C84.7659 38.2257 84.5744 38.3078 84.4058 38.4324C84.2407 38.5576 84.0989 38.7235 83.9803 38.9301C83.8653 39.1373 83.7811 39.383 83.7279 39.6672C83.6681 39.9865 83.6479 40.2786 83.6673 40.5437C83.6866 40.8088 83.7448 41.0412 83.8417 41.2409C83.9422 41.4413 84.08 41.6069 84.2553 41.7378C84.4346 41.8658 84.6541 41.9541 84.9138 42.0027ZM86.3935 36.1083C86.0297 36.0729 85.7079 36.0943 85.4282 36.1727C85.1519 36.2517 84.9092 36.3841 84.7001 36.5701C84.4916 36.7526 84.317 36.9868 84.1763 37.2728C84.0356 37.5587 83.9228 37.8898 83.8378 38.2661C83.9535 38.1135 84.0905 37.983 84.2488 37.8746C84.4077 37.7628 84.582 37.6756 84.7717 37.613C84.962 37.547 85.1617 37.5081 85.3709 37.4965C85.5842 37.482 85.8049 37.496 86.033 37.5388C86.3873 37.6051 86.693 37.7277 86.95 37.9066C87.2112 38.0826 87.4187 38.303 87.5724 38.5678C87.7297 38.8333 87.8307 39.1373 87.8755 39.4798C87.921 39.8188 87.9073 40.183 87.8343 40.5724C87.7601 40.9688 87.6314 41.3169 87.4481 41.6167C87.2691 41.9136 87.0459 42.1551 86.7787 42.3411C86.5121 42.5236 86.2094 42.6466 85.8707 42.7103C85.5354 42.7746 85.1731 42.7703 84.7837 42.6974C84.4258 42.6304 84.1019 42.508 83.812 42.3302C83.5221 42.1525 83.2888 41.9054 83.112 41.5891C82.9352 41.2727 82.8219 40.8793 82.772 40.4087C82.7263 39.9354 82.7648 39.3706 82.8877 38.7146C82.9928 38.1533 83.1403 37.6471 83.3301 37.196C83.5198 36.7449 83.7595 36.3668 84.0491 36.0615C84.3422 35.7569 84.6874 35.5328 85.0846 35.3893C85.4861 35.243 85.9489 35.1953 86.4732 35.2463L88.4088 35.4399L88.3707 35.9339C88.3609 36.0446 88.328 36.1329 88.2721 36.1987C88.2162 36.2645 88.1332 36.2907 88.0232 36.2773L86.3935 36.1083ZM94.3312 38.8912L93.3329 44.2221L92.3961 44.0467L93.0742 40.4261C93.0873 40.3559 93.1049 40.2812 93.1271 40.2018C93.1492 40.1224 93.1731 40.0434 93.1987 39.9646C93.154 40.0289 93.1103 40.0879 93.0675 40.1416C93.0248 40.1953 92.9813 40.2435 92.937 40.286L89.7082 43.3037C89.6591 43.3526 89.5998 43.3978 89.5303 43.4392C89.465 43.4778 89.3973 43.4906 89.3271 43.4774L88.7587 43.371L89.7571 38.0401L90.6991 38.2165L90.021 41.8371C90.0085 41.9037 89.9912 41.9768 89.9691 42.0561C89.9476 42.132 89.9241 42.2093 89.8985 42.288C89.9425 42.2273 89.9856 42.1718 90.0277 42.1216C90.0704 42.0678 90.1122 42.0194 90.1529 41.9762L93.3817 38.9585C93.4308 38.9096 93.4897 38.8662 93.5586 38.8282C93.6281 38.7868 93.6979 38.7726 93.7681 38.7858L94.3312 38.8912ZM100.596 40.0643L99.5973 45.3953L98.6606 45.2198L99.3386 41.5992C99.3517 41.5291 99.3694 41.4543 99.3915 41.3749C99.4136 41.2955 99.4375 41.2165 99.4632 41.1378C99.4184 41.202 99.3747 41.261 99.332 41.3147C99.2892 41.3685 99.2457 41.4166 99.2014 41.4592L95.9727 44.4768C95.9236 44.5257 95.8643 44.5709 95.7948 44.6124C95.7295 44.651 95.6617 44.6637 95.5915 44.6506L95.0232 44.5441L96.0215 39.2132L96.9635 39.3896L96.2855 43.0102C96.273 43.0769 96.2557 43.1499 96.2336 43.2293C96.2121 43.3051 96.1885 43.3824 96.1629 43.4612C96.207 43.4004 96.25 43.3449 96.2921 43.2947C96.3349 43.241 96.3766 43.1925 96.4174 43.1493L99.6461 40.1316C99.6952 40.0827 99.7542 40.0393 99.823 40.0014C99.8925 39.9599 99.9624 39.9458 100.033 39.9589L100.596 40.0643ZM106.86 41.2375L105.862 46.5684L104.925 46.393L105.603 42.7724C105.616 42.7022 105.634 42.6274 105.656 42.5481C105.678 42.4687 105.702 42.3896 105.728 42.3109C105.683 42.3752 105.639 42.4342 105.596 42.4879C105.554 42.5416 105.51 42.5897 105.466 42.6323L102.237 45.65C102.188 45.6989 102.129 45.744 102.059 45.7855C101.994 45.8241 101.926 45.8368 101.856 45.8237L101.288 45.7173L102.286 40.3863L103.228 40.5627L102.55 44.1833C102.537 44.25 102.52 44.323 102.498 44.4024C102.477 44.4783 102.453 44.5556 102.427 44.6343C102.471 44.5735 102.514 44.5181 102.557 44.4678C102.599 44.4141 102.641 44.3656 102.682 44.3224L105.911 41.3048C105.96 41.2559 106.019 41.2124 106.087 41.1745C106.157 41.133 106.227 41.1189 106.297 41.132L106.86 41.2375ZM104.875 39.5313C105.019 39.5582 105.143 39.5651 105.247 39.5519C105.352 39.5352 105.441 39.4956 105.515 39.4331C105.592 39.3713 105.655 39.2851 105.705 39.1746C105.755 39.0641 105.795 38.9246 105.827 38.7562L106.374 38.8587C106.441 38.8712 106.486 38.9105 106.51 38.9767C106.534 39.043 106.539 39.1111 106.526 39.1813C106.493 39.3567 106.429 39.508 106.332 39.6352C106.236 39.7624 106.111 39.8644 105.959 39.9412C105.811 40.0151 105.637 40.0606 105.438 40.0778C105.238 40.0949 105.019 40.0812 104.781 40.0365C104.542 39.9918 104.333 39.9254 104.154 39.8373C103.974 39.7492 103.827 39.6436 103.712 39.5204C103.601 39.3943 103.524 39.2546 103.48 39.1011C103.436 38.9476 103.43 38.7832 103.463 38.6077C103.476 38.5376 103.506 38.476 103.552 38.4229C103.599 38.3698 103.655 38.3495 103.722 38.362L104.269 38.4645C104.238 38.6329 104.225 38.7776 104.231 38.8986C104.238 39.0197 104.264 39.1226 104.31 39.2075C104.359 39.293 104.43 39.3624 104.521 39.4159C104.614 39.4659 104.732 39.5044 104.875 39.5313ZM107.504 46.2767C107.521 46.1855 107.553 46.1025 107.599 46.0277C107.649 45.9536 107.708 45.892 107.776 45.8428C107.846 45.7943 107.925 45.7601 108.013 45.7402C108.1 45.7202 108.189 45.7187 108.28 45.7358C108.372 45.7529 108.454 45.7865 108.528 45.8367C108.602 45.8869 108.664 45.9474 108.712 46.0182C108.761 46.0891 108.795 46.1681 108.815 46.2554C108.835 46.3426 108.836 46.4319 108.819 46.5231C108.801 46.6178 108.768 46.7022 108.717 46.7763C108.668 46.847 108.608 46.9065 108.537 46.955C108.466 47.0034 108.387 47.0359 108.301 47.0524C108.213 47.0723 108.124 47.0738 108.033 47.0567C107.942 47.0396 107.859 47.006 107.785 46.9558C107.71 46.9091 107.649 46.8504 107.6 46.7795C107.555 46.7094 107.522 46.6324 107.502 46.5487C107.485 46.4621 107.486 46.3714 107.504 46.2767ZM110.201 46.7819C110.219 46.6907 110.25 46.6077 110.297 46.5329C110.347 46.4588 110.406 46.3972 110.473 46.348C110.544 46.2996 110.623 46.2654 110.71 46.2454C110.798 46.2254 110.887 46.224 110.978 46.241C111.069 46.2581 111.152 46.2918 111.226 46.342C111.3 46.3922 111.362 46.4527 111.41 46.5235C111.459 46.5943 111.493 46.6733 111.513 46.7606C111.533 46.8478 111.534 46.9371 111.517 47.0283C111.499 47.123 111.465 47.2074 111.415 47.2816C111.366 47.3522 111.305 47.4117 111.235 47.4602C111.164 47.5087 111.085 47.5411 110.999 47.5576C110.911 47.5776 110.822 47.579 110.731 47.5619C110.64 47.5449 110.557 47.5112 110.483 47.461C110.408 47.4143 110.346 47.3556 110.298 47.2848C110.253 47.2146 110.22 47.1377 110.2 47.0539C110.183 46.9673 110.184 46.8766 110.201 46.7819ZM112.899 47.2871C112.916 47.1959 112.948 47.1129 112.995 47.0381C113.045 46.964 113.104 46.9024 113.171 46.8533C113.242 46.8048 113.321 46.7706 113.408 46.7506C113.496 46.7306 113.585 46.7292 113.676 46.7463C113.767 46.7634 113.85 46.797 113.924 46.8472C113.998 46.8974 114.059 46.9579 114.108 47.0287C114.156 47.0995 114.191 47.1785 114.211 47.2658C114.231 47.3531 114.232 47.4423 114.215 47.5335C114.197 47.6282 114.163 47.7127 114.113 47.7868C114.064 47.8574 114.003 47.9169 113.933 47.9654C113.862 48.0139 113.783 48.0464 113.696 48.0628C113.609 48.0828 113.52 48.0842 113.429 48.0672C113.337 48.0501 113.255 48.0164 113.181 47.9662C113.106 47.9196 113.044 47.8608 112.996 47.79C112.951 47.7198 112.918 47.6429 112.897 47.5591C112.881 47.4725 112.882 47.3819 112.899 47.2871Z"/>
<rect fill="#0070FF" transform="rotate(10.6069 154.971 40.1792)" rx="10.5987" height="21.6391" width="21.1974" y="40.1792" x="154.971"/>
<path stroke-linecap="round" stroke-width="1.3385" stroke="white" d="M161.129 49.4513L165.665 56.0783"/>
<path stroke-linecap="round" stroke-width="1.3385" stroke="white" d="M160.084 55.033L166.711 50.4965"/>
<path fill="#0044FA" d="M122.764 119.506C119.836 119.236 117.12 117.983 114.8 116.426C114.479 116.231 114.188 116.019 113.926 115.79C113.635 115.578 113.344 115.366 113.099 115.151C112.562 114.724 112.026 114.298 111.533 113.822C110.454 112.876 109.56 111.919 108.662 110.915C106.913 108.905 105.387 106.787 104.046 104.657C102.659 102.531 101.453 100.346 100.022 98.2687C99.2627 97.2559 98.4601 96.2922 97.5225 95.3836C96.5419 94.5239 95.3404 93.8175 94.019 93.3961C93.0777 93.1345 92.0965 92.968 91.0814 92.9885L91.0784 92.9425C92.0935 92.922 93.1147 92.9935 94.0529 93.209C95.5063 93.5293 96.8367 94.0887 98.0843 94.7922C99.3318 95.4956 100.496 96.3432 101.572 97.2427C103.72 98.9959 105.561 101 107.084 103.072C108.655 105.186 109.996 107.316 111.338 109.445C112.725 111.572 113.974 113.708 115.76 115.577C116.655 116.535 117.679 117.345 118.834 118.055C119.99 118.764 121.357 119.183 122.804 119.411C123.644 119.54 124.568 119.526 125.442 119.469L125.445 119.515C124.525 119.575 123.647 119.586 122.764 119.506Z"/>
<path fill="#0044FA" d="M93.6325 119.85C93.0133 119.567 92.477 119.14 91.9897 118.757C91.4994 118.327 90.9631 117.9 90.5618 117.418C89.7132 116.457 88.9536 115.445 88.286 114.426C87.6 113.362 86.9437 112.281 86.3171 111.182C85.6924 110.115 85.0678 109.047 84.3941 107.936C83.0498 105.76 81.6165 103.637 79.9072 101.531C79.0986 100.476 78.1549 99.475 77.1223 98.5264C76.0897 97.5778 74.9221 96.6843 73.6255 95.9378C72.286 95.2404 70.8145 94.6441 69.2261 94.3789C67.6838 94.1106 66.0706 94.1705 64.6105 94.4513C64.4755 94.5063 64.3865 94.5584 64.3466 94.6534C64.3556 94.7914 64.4567 94.9234 64.5978 94.9603L64.6438 94.9573C66.085 95.0936 67.4004 95.423 68.6328 95.8964C69.8192 96.3728 70.8797 97.0424 71.8542 97.81C72.8288 98.5776 73.7173 99.4433 74.5169 100.361C75.3195 101.325 76.0761 102.291 76.8357 103.304C78.3059 105.287 79.6472 107.416 81.1725 109.534C81.8892 110.596 82.7408 111.602 83.5924 112.609C84.0427 113.134 84.4441 113.616 84.9404 114.138L85.6359 114.877L86.3743 115.568C87.3609 116.52 88.4365 117.419 89.5981 118.221C90.1804 118.644 90.8027 118.973 91.3819 119.351C92.0502 119.677 92.6724 120.005 93.3807 120.236C94.7111 120.795 96.1215 121.165 97.6027 121.206C98.1895 121.229 98.7752 121.237 99.36 121.229L99.357 121.183C97.3297 121.27 95.2692 120.851 93.6325 119.85Z"/>
<g style="mix-blend-mode:screen">
<path fill="#5D8AA8" d="M85.5843 94.4126L86.8695 113.965C86.8755 114.057 86.7896 114.155 86.7436 114.158C86.6516 114.164 86.5535 114.078 86.5475 113.986L85.2623 94.4337C85.2562 94.3417 85.3452 94.2897 85.4372 94.2836C85.4832 94.2806 85.5783 94.3206 85.5843 94.4126Z"/>
<path fill="#5D8AA8" d="M94.442 93.5069L96.2413 120.88C96.2443 120.926 96.1584 121.024 96.1124 121.027C96.0204 121.033 95.9223 120.947 95.9193 120.901L94.12 93.5281C94.1139 93.436 94.2029 93.384 94.2949 93.3779C94.3409 93.3749 94.436 93.4149 94.442 93.5069Z"/>
<path fill="#5D8AA8" d="M89.9373 93.1561L91.6368 119.011C91.6399 119.057 91.5999 119.152 91.5079 119.158C91.4159 119.164 91.3638 119.075 91.3608 119.029L89.6613 93.1743C89.6553 93.0823 89.6952 92.9872 89.7872 92.9812C89.8793 92.9751 89.9313 93.0641 89.9373 93.1561Z"/>
<path fill="#5D8AA8" d="M99.0429 96.0228L100.688 121.049C100.694 121.141 100.651 121.19 100.559 121.196C100.467 121.203 100.418 121.16 100.412 121.068L98.7669 96.041C98.7639 95.995 98.8038 95.8999 98.8958 95.8939C98.9878 95.8878 99.0399 95.9768 99.0429 96.0228Z"/>
<path fill="#5D8AA8" d="M104.79 119.486L104.124 110.058L103.55 100.624C103.547 100.578 103.59 100.529 103.682 100.523C103.728 100.52 103.777 100.563 103.78 100.609L104.446 110.037L105.02 119.471C105.023 119.517 104.98 119.566 104.934 119.569C104.842 119.575 104.793 119.532 104.79 119.486Z"/>
<path fill="#5D8AA8" d="M108.703 106.615L109.338 116.276C109.344 116.368 109.255 116.42 109.163 116.426C109.071 116.433 109.022 116.39 109.016 116.298L108.381 106.637C108.375 106.545 108.415 106.45 108.507 106.443C108.599 106.437 108.697 106.523 108.703 106.615Z"/>
<path fill="#5D8AA8" d="M81.3274 97.8342L81.9261 106.943C81.9322 107.035 81.8892 107.084 81.7972 107.09C81.7052 107.096 81.6562 107.053 81.6501 106.961L81.0514 97.8523C81.0453 97.7603 81.0853 97.6653 81.1773 97.6593C81.2693 97.6532 81.3213 97.7422 81.3274 97.8342Z"/>
</g>
<g style="mix-blend-mode:screen">
<path fill="#5D8AA8" d="M136.159 91.3192L137.429 110.641C137.435 110.733 137.349 110.831 137.257 110.837C137.211 110.84 137.113 110.754 137.107 110.662L135.837 91.3403C135.831 91.2483 135.92 91.1963 135.966 91.1932C136.058 91.1872 136.153 91.2271 136.159 91.3192Z"/>
<path fill="#5D8AA8" d="M127.234 91.2127L129.034 118.586C129.04 118.678 128.954 118.776 128.862 118.782C128.816 118.785 128.718 118.699 128.712 118.607L126.912 91.2339C126.906 91.1419 126.995 91.0898 127.041 91.0868C127.133 91.0808 127.228 91.1207 127.234 91.2127Z"/>
<path fill="#5D8AA8" d="M131.618 90.4164L133.317 116.271C133.32 116.317 133.28 116.412 133.188 116.418C133.096 116.424 133.044 116.335 133.041 116.289L131.341 90.4345C131.335 90.3425 131.375 90.2475 131.467 90.2414C131.559 90.2354 131.611 90.3244 131.618 90.4164Z"/>
<path fill="#5D8AA8" d="M122.966 94.4504L124.614 119.523C124.62 119.615 124.577 119.664 124.485 119.67C124.393 119.676 124.344 119.633 124.338 119.541L122.69 94.4685C122.687 94.4225 122.726 94.3275 122.818 94.3214C122.91 94.3154 122.963 94.4044 122.966 94.4504Z"/>
<path fill="#5D8AA8" d="M119.848 118.727L119.176 109.207L118.594 99.6353C118.59 99.5893 118.633 99.5403 118.679 99.5372C118.771 99.5312 118.82 99.5742 118.824 99.6202L119.499 109.186L120.078 118.712C120.082 118.758 120.042 118.853 119.95 118.859C119.904 118.862 119.851 118.773 119.848 118.727Z"/>
<path fill="#5D8AA8" d="M114.821 106.213L115.456 115.874C115.462 115.966 115.419 116.015 115.327 116.021C115.235 116.027 115.14 115.987 115.134 115.895L114.499 106.234C114.493 106.142 114.579 106.044 114.671 106.038C114.763 106.032 114.815 106.121 114.821 106.213Z"/>
<path fill="#5D8AA8" d="M140.766 93.9272L141.364 103.036C141.371 103.128 141.328 103.177 141.236 103.183C141.144 103.189 141.095 103.146 141.088 103.054L140.49 93.9453C140.484 93.8533 140.524 93.7583 140.616 93.7522C140.708 93.7462 140.76 93.8352 140.766 93.9272Z"/>
</g>
<path fill="#0070FF" d="M131.342 90.4345C132.777 90.4788 134.184 90.8021 135.512 91.3155C136.793 91.8319 137.949 92.5414 139.015 93.303C140.085 94.1106 141.065 94.9702 142 95.8328C142.921 96.7271 143.813 97.6388 144.675 98.5678L147.352 101.349C150.833 105.094 154.049 109.04 157.723 112.911L157.726 112.957C157.775 113 157.916 113.037 158.008 113.031C158.189 112.973 158.272 112.829 158.22 112.74C157.501 110.246 156.335 107.966 154.988 105.745C153.597 103.572 151.98 101.46 150.185 99.4531C148.347 97.4948 146.195 95.6956 143.74 94.1937C142.539 93.4872 141.202 92.8358 139.872 92.2764C138.495 91.72 137.125 91.2557 135.668 90.8894C134.261 90.566 132.814 90.3378 131.336 90.3425C130.873 90.3421 130.412 90.357 129.952 90.3872L129.955 90.4332C130.415 90.403 130.877 90.4034 131.342 90.4345Z"/>
<g style="mix-blend-mode:screen">
<path fill="#5D8AA8" d="M155.071 88.7361L156.456 109.806C156.459 109.852 156.373 109.95 156.281 109.956C156.235 109.959 156.137 109.873 156.134 109.827L154.749 88.7573C154.743 88.6653 154.832 88.6132 154.878 88.6102C154.97 88.6042 155.065 88.6441 155.071 88.7361Z"/>
<path fill="#5D8AA8" d="M148.633 92.717L149.232 101.826C149.238 101.918 149.195 101.967 149.103 101.973C149.011 101.979 148.916 101.939 148.91 101.847L148.311 92.7382C148.305 92.6461 148.394 92.5941 148.486 92.588C148.578 92.582 148.627 92.625 148.633 92.717Z"/>
</g>
<g style="mix-blend-mode:screen">
<path fill="#5D8AA8" d="M66.3278 94.5694L67.7127 115.64C67.7158 115.686 67.6298 115.784 67.5838 115.787C67.4918 115.793 67.3937 115.707 67.3907 115.661L66.0057 94.5906C65.9997 94.4986 66.0887 94.4465 66.1807 94.4405C66.2267 94.4375 66.3217 94.4774 66.3278 94.5694Z"/>
<path fill="#5D8AA8" d="M73.2313 97.6733L73.8301 106.782C73.8361 106.874 73.7471 106.926 73.6551 106.932C73.5631 106.938 73.5141 106.895 73.508 106.803L72.9093 97.6945C72.9032 97.6025 72.9462 97.5534 73.0382 97.5474C73.1302 97.5413 73.2253 97.5813 73.2313 97.6733Z"/>
</g>
<path fill="#003262" d="M130.942 117.397C131.519 117.036 131.949 116.546 132.428 116.098C132.858 115.608 133.287 115.118 133.622 114.588C134.384 113.521 134.958 112.421 135.533 111.32C136.074 110.176 136.567 109.019 137.014 107.85C137.494 106.71 137.973 105.569 138.496 104.38C139.544 102.047 140.687 99.754 142.106 97.4429C142.815 96.2874 143.62 95.1719 144.519 94.0962C145.419 93.0206 146.459 91.982 147.647 91.0722C148.884 90.2055 150.265 89.4217 151.759 88.9538C153.298 88.483 154.86 88.3342 156.39 88.4184C156.531 88.4553 156.626 88.4953 156.632 88.5873C156.687 88.7223 156.604 88.8663 156.423 88.9244C155.012 89.2482 153.705 89.7499 152.591 90.3776C151.432 91.0083 150.468 91.8109 149.602 92.6995C148.782 93.585 148.015 94.5595 147.342 95.574C146.673 96.6345 146.003 97.695 145.429 98.7954C144.231 100.953 143.18 103.24 141.945 105.539C141.327 106.689 140.661 107.795 139.948 108.905C139.57 109.484 139.19 110.017 138.812 110.596L138.219 111.421L137.577 112.202C136.678 113.278 135.775 114.307 134.683 115.257C134.207 115.75 133.633 116.158 133.062 116.611C132.488 117.019 131.914 117.426 131.242 117.747C129.997 118.476 128.601 119.03 127.138 119.265C126.59 119.362 126.025 119.446 125.445 119.514L125.442 119.469C127.463 119.289 129.451 118.604 130.942 117.397Z"/>
<path fill="#003262" d="M101.97 120.873C104.884 120.219 107.413 118.621 109.509 116.773C109.771 116.54 110.032 116.292 110.292 116.029C110.507 115.784 110.768 115.536 111.029 115.287C111.504 114.794 111.98 114.301 112.407 113.764C113.307 112.689 114.114 111.619 114.827 110.51C116.344 108.285 117.533 105.989 118.63 103.699C119.727 101.409 120.637 99.0852 121.783 96.8383C122.357 95.7379 123.027 94.6774 123.883 93.6508C124.743 92.6702 125.796 91.8156 127.096 91.2218C127.995 90.8393 128.946 90.5458 129.955 90.4332L129.952 90.3872C128.943 90.4998 127.94 90.7043 126.992 91.0438C125.639 91.5486 124.348 92.2804 123.203 93.1411C122.104 93.9987 121.014 94.9945 120.112 96.0241C118.212 98.0433 116.649 100.271 115.365 102.527C114.084 104.829 113.033 107.116 111.982 109.403C110.931 111.69 109.926 113.974 108.4 116.061C107.684 117.124 106.775 118.062 105.723 118.917C104.624 119.774 103.323 120.368 101.964 120.781C101.102 121.022 100.231 121.126 99.357 121.183L99.36 121.229C100.234 121.172 101.105 121.068 101.97 120.873Z"/>
<path fill="#003262" d="M89.7072 93.1713C88.2902 93.403 86.8912 93.9108 85.6884 94.5905C84.4856 95.2702 83.3869 96.1279 82.4292 97.0225C81.4746 97.9631 80.615 98.9437 79.8474 99.9182C79.0511 100.925 78.2712 101.947 77.5076 102.983L75.2629 106.087C72.2566 110.259 69.5845 114.593 66.4953 118.908L66.4983 118.954C66.4093 119.006 66.3203 119.058 66.1823 119.067C66.0413 119.03 65.9402 118.898 65.9341 118.806C66.3659 116.236 67.2238 113.824 68.2687 111.445C69.3626 109.109 70.6436 106.807 72.2067 104.579C73.7268 102.4 75.624 100.334 77.8614 98.5241C79.0061 97.6634 80.2458 96.8426 81.4916 96.1139C82.7374 95.3851 84.0813 94.7423 85.4312 94.1916C86.8301 93.6838 88.2351 93.268 89.7012 93.0792C90.1592 93.0183 90.6183 92.9728 91.0783 92.9425L91.0813 92.9885C90.6213 93.0188 90.1633 93.0797 89.7072 93.1713Z"/>
<path fill="#003262" d="M84.6432 163.221L82.5961 162.838L81.7318 167.453L80.7951 167.278L81.6594 162.662L79.6123 162.279L79.7463 161.563L84.7773 162.506L84.6432 163.221ZM88.1697 166.175C87.7356 166.108 87.3606 166.074 87.0449 166.073C86.7333 166.069 86.4728 166.093 86.2635 166.145C86.0576 166.197 85.8996 166.274 85.7896 166.377C85.683 166.481 85.616 166.606 85.5884 166.754C85.5621 166.894 85.5622 167.019 85.5888 167.13C85.6153 167.24 85.661 167.336 85.7257 167.417C85.7945 167.495 85.8786 167.56 85.978 167.611C86.0815 167.659 86.1946 167.695 86.3174 167.718C86.4823 167.749 86.6361 167.761 86.7789 167.755C86.9223 167.746 87.0595 167.721 87.1906 167.68C87.3252 167.64 87.4551 167.586 87.5803 167.519C87.709 167.452 87.8365 167.373 87.9628 167.28L88.1697 166.175ZM85.5518 163.429C85.8997 163.2 86.257 163.048 86.6235 162.971C86.9901 162.894 87.3804 162.895 87.7944 162.972C88.0926 163.028 88.3483 163.127 88.5614 163.269C88.7746 163.41 88.9437 163.584 89.0687 163.789C89.1937 163.993 89.2733 164.228 89.3073 164.492C89.3414 164.756 89.3305 165.038 89.2746 165.336L88.636 168.746L88.2203 168.668C88.1291 168.651 88.0615 168.624 88.0177 168.587C87.9745 168.546 87.947 168.479 87.9354 168.386L87.9247 167.861C87.7601 167.965 87.6016 168.055 87.4492 168.132C87.2975 168.205 87.1414 168.263 86.9809 168.305C86.8211 168.344 86.6537 168.366 86.4787 168.369C86.3066 168.377 86.1188 168.362 85.9153 168.324C85.7083 168.285 85.5189 168.22 85.3469 168.13C85.1757 168.036 85.0325 167.919 84.9173 167.777C84.8057 167.637 84.726 167.471 84.6781 167.28C84.6344 167.087 84.6353 166.869 84.6806 166.627C84.72 166.417 84.8157 166.226 84.9676 166.055C85.1202 165.88 85.3404 165.741 85.6282 165.639C85.9161 165.537 86.2777 165.477 86.7129 165.461C87.1488 165.441 87.6715 165.481 88.2811 165.58L88.3589 165.164C88.4365 164.75 88.4055 164.421 88.266 164.177C88.1271 163.93 87.8858 163.774 87.542 163.71C87.3104 163.666 87.1101 163.66 86.9411 163.69C86.7762 163.717 86.629 163.756 86.4994 163.808C86.374 163.858 86.2636 163.904 86.1682 163.948C86.077 163.989 85.9911 164.002 85.9104 163.987C85.8472 163.975 85.7958 163.949 85.7561 163.909C85.7171 163.865 85.6864 163.816 85.664 163.761L85.5518 163.429ZM91.4558 167.945C91.5844 168.209 91.7415 168.407 91.9273 168.54C92.113 168.673 92.3322 168.763 92.5848 168.81C93.083 168.903 93.4986 168.798 93.8316 168.493C94.1646 168.189 94.3925 167.709 94.5153 167.053C94.5804 166.705 94.6047 166.401 94.5882 166.14C94.5752 165.88 94.5256 165.66 94.4393 165.481C94.3538 165.298 94.2337 165.153 94.0791 165.048C93.9245 164.943 93.7402 164.87 93.5262 164.83C93.221 164.773 92.9394 164.793 92.6816 164.89C92.4273 164.988 92.1797 165.146 91.9387 165.366L91.4558 167.945ZM92.0116 164.715C92.2881 164.48 92.5894 164.306 92.9156 164.193C93.2419 164.08 93.5944 164.059 93.9733 164.13C94.2821 164.187 94.5498 164.299 94.7766 164.465C95.004 164.628 95.1837 164.841 95.3158 165.105C95.4485 165.366 95.5303 165.676 95.5613 166.034C95.5923 166.392 95.5664 166.792 95.4836 167.234C95.4101 167.627 95.2888 167.984 95.1198 168.304C94.9515 168.621 94.744 168.886 94.4974 169.097C94.2549 169.306 93.9764 169.456 93.6618 169.546C93.3513 169.633 93.0172 169.643 92.6593 169.576C92.333 169.515 92.0625 169.408 91.8479 169.255C91.6373 169.099 91.461 168.906 91.3189 168.676L90.8774 171.034L89.9354 170.858L91.2717 163.722L91.8348 163.827C91.9681 163.852 92.0384 163.932 92.0457 164.068L92.0116 164.715ZM100.559 165.733C100.622 165.665 100.699 165.614 100.789 165.58C100.879 165.546 100.97 165.538 101.061 165.555L101.792 165.692L100.028 167.464C99.9193 167.578 99.8115 167.669 99.7045 167.736C99.5982 167.799 99.4741 167.841 99.3322 167.862C99.4921 167.939 99.6207 168.038 99.7181 168.158C99.8161 168.274 99.8966 168.416 99.9596 168.584L100.947 171.051L100.294 170.929C100.126 170.898 100.001 170.845 99.9203 170.772C99.8396 170.699 99.7758 170.603 99.7288 170.486L99.0025 168.634C98.8889 168.329 98.6672 168.146 98.3374 168.084L97.7638 167.977L97.3144 170.377L96.3724 170.2L97.3717 164.864L98.3137 165.04L97.882 167.345L98.3872 167.44C98.6679 167.493 98.9095 167.414 99.1121 167.205L100.559 165.733ZM107.603 166.78L106.605 172.111L105.668 171.936L106.346 168.315C106.359 168.245 106.377 168.17 106.399 168.091C106.421 168.011 106.445 167.932 106.47 167.853C106.426 167.918 106.382 167.977 106.339 168.03C106.296 168.084 106.253 168.132 106.209 168.175L102.98 171.193C102.931 171.241 102.872 171.287 102.802 171.328C102.737 171.367 102.669 171.379 102.599 171.366L102.03 171.26L103.029 165.929L103.971 166.105L103.293 169.726C103.28 169.793 103.263 169.866 103.241 169.945C103.219 170.021 103.196 170.098 103.17 170.177C103.214 170.116 103.257 170.061 103.299 170.01C103.342 169.957 103.384 169.908 103.425 169.865L106.653 166.847C106.702 166.798 106.761 166.755 106.83 166.717C106.9 166.676 106.97 166.661 107.04 166.675L107.603 166.78ZM110.817 172.257C111.343 172.356 111.771 172.263 112.1 171.98C112.433 171.694 112.656 171.249 112.769 170.645C112.882 170.045 112.84 169.553 112.643 169.167C112.45 168.783 112.096 168.542 111.58 168.445C111.331 168.399 111.099 168.397 110.884 168.44C110.669 168.48 110.478 168.562 110.309 168.687C110.144 168.812 110.002 168.978 109.884 169.184C109.769 169.392 109.684 169.637 109.631 169.922C109.571 170.241 109.551 170.533 109.571 170.798C109.59 171.063 109.648 171.296 109.745 171.495C109.846 171.696 109.983 171.861 110.159 171.992C110.338 172.12 110.557 172.208 110.817 172.257ZM112.297 166.363C111.933 166.327 111.611 166.349 111.332 166.427C111.055 166.506 110.813 166.638 110.603 166.824C110.395 167.007 110.22 167.241 110.08 167.527C109.939 167.813 109.826 168.144 109.741 168.52C109.857 168.368 109.994 168.237 110.152 168.129C110.311 168.017 110.485 167.93 110.675 167.867C110.865 167.801 111.065 167.762 111.274 167.751C111.488 167.736 111.708 167.75 111.936 167.793C112.291 167.859 112.596 167.982 112.853 168.161C113.115 168.337 113.322 168.557 113.476 168.822C113.633 169.088 113.734 169.392 113.779 169.734C113.824 170.073 113.811 170.437 113.738 170.827C113.663 171.223 113.535 171.571 113.351 171.871C113.172 172.168 112.949 172.409 112.682 172.595C112.415 172.778 112.113 172.901 111.774 172.965C111.439 173.029 111.076 173.025 110.687 172.952C110.329 172.885 110.005 172.762 109.715 172.585C109.425 172.407 109.192 172.16 109.015 171.843C108.839 171.527 108.725 171.134 108.675 170.663C108.63 170.19 108.668 169.625 108.791 168.969C108.896 168.408 109.044 167.901 109.233 167.45C109.423 166.999 109.663 166.621 109.952 166.316C110.246 166.011 110.591 165.787 110.988 165.644C111.389 165.497 111.852 165.45 112.377 165.501L114.312 165.694L114.274 166.188C114.264 166.299 114.231 166.387 114.175 166.453C114.12 166.519 114.037 166.545 113.927 166.532L112.297 166.363ZM120.235 169.146L119.236 174.476L118.299 174.301L118.978 170.68C118.991 170.61 119.008 170.536 119.03 170.456C119.053 170.377 119.076 170.298 119.102 170.219C119.057 170.283 119.014 170.342 118.971 170.396C118.928 170.45 118.885 170.498 118.84 170.54L115.612 173.558C115.562 173.607 115.503 173.652 115.434 173.694C115.368 173.732 115.301 173.745 115.23 173.732L114.662 173.625L115.66 168.294L116.602 168.471L115.924 172.091C115.912 172.158 115.895 172.231 115.872 172.31C115.851 172.386 115.827 172.464 115.802 172.542C115.846 172.482 115.889 172.426 115.931 172.376C115.974 172.322 116.016 172.274 116.056 172.231L119.285 169.213C119.334 169.164 119.393 169.121 119.462 169.083C119.531 169.041 119.601 169.027 119.671 169.04L120.235 169.146Z"/>
</g>
<defs>
<filter color-interpolation-filters="sRGB" filterUnits="userSpaceOnUse" height="227.437" width="213.923" y="-2.06973" x="-1.79322" id="filter0_d_9_10">
<feFlood result="BackgroundImageFix" flood-opacity="0"/>
<feColorMatrix result="hardAlpha" values="0 0 0 0 0 0 0 0 0 0 0 0 0 0 0 0 0 0 127 0" type="matrix" in="SourceAlpha"/>
<feOffset dy="8.03099" dx="-6.69249"/>
<feGaussianBlur stdDeviation="13.0504"/>
<feComposite operator="out" in2="hardAlpha"/>
<feColorMatrix values="0 0 0 0 0.819608 0 0 0 0 0.843137 0 0 0 0 0.929412 0 0 0 1 0" type="matrix"/>
<feBlend result="effect1_dropShadow_9_10" in2="BackgroundImageFix" mode="normal"/>
<feBlend result="shape" in2="effect1_dropShadow_9_10" in="SourceGraphic" mode="normal"/>
</filter>
</defs>
</svg>