<svg xmlns="http://www.w3.org/2000/svg" fill="none" viewBox="22.29299363057325 4.906 182.35668789808918 196.686" style="max-height: 500px" width="182.35668789808918" height="196.686">
<g filter="url(#filter0_d_7_3802)">
<rect shape-rendering="crispEdges" fill="white" transform="rotate(-10.4912 31 40.7476)" rx="16.062" height="152.83" width="135.912" y="40.7476" x="31"/>
<path fill="#003262" d="M55.8911 53.0783L53.4483 53.5306L54.6864 60.2165L53.6704 60.4047L52.4323 53.7187L49.9843 54.1721L49.8254 53.314L55.7321 52.2201L55.8911 53.0783ZM59.491 56.8439C59.0619 56.9378 58.6999 57.0412 58.4049 57.1539C58.1129 57.2624 57.8784 57.3784 57.7016 57.5019C57.5284 57.6248 57.4089 57.754 57.3433 57.8895C57.2811 58.0245 57.2637 58.1656 57.291 58.313C57.317 58.4534 57.3622 58.5703 57.4267 58.6636C57.4912 58.7569 57.5682 58.8298 57.6578 58.8822C57.7502 58.9304 57.852 58.9606 57.9631 58.9727C58.0771 58.9806 58.1955 58.9732 58.3184 58.9504C58.4833 58.9199 58.6313 58.8761 58.7623 58.8192C58.8927 58.7588 59.0117 58.6859 59.1193 58.6006C59.2305 58.5147 59.3323 58.4178 59.4249 58.3099C59.5209 58.2014 59.6112 58.0812 59.6957 57.9494L59.491 56.8439ZM56.0603 55.2249C56.3025 54.886 56.5808 54.6149 56.8952 54.4115C57.2097 54.208 57.5739 54.068 57.9881 53.9913C58.2864 53.936 58.5605 53.9361 58.8103 53.9915C59.0602 54.0469 59.2803 54.1477 59.4707 54.2939C59.6612 54.4401 59.8198 54.6304 59.9467 54.8646C60.0735 55.0989 60.1646 55.3651 60.2198 55.6635L60.8516 59.0748L60.4357 59.1519C60.3444 59.1688 60.2716 59.1677 60.2173 59.1487C60.1623 59.1262 60.1126 59.0737 60.0683 58.9912L59.8694 58.5053C59.7531 58.6612 59.6377 58.8023 59.5231 58.9288C59.408 59.0518 59.2832 59.162 59.1488 59.2595C59.0137 59.3535 58.8652 59.4336 58.7033 59.4999C58.5454 59.569 58.3648 59.6225 58.1612 59.6602C57.9541 59.6985 57.7541 59.7065 57.5612 59.6841C57.3677 59.6583 57.1918 59.6001 57.0334 59.5096C56.8786 59.4185 56.7446 59.2927 56.6314 59.1321C56.521 58.9675 56.4434 58.764 56.3986 58.5219C56.3596 58.3113 56.3801 58.0987 56.4602 57.8843C56.5396 57.6663 56.6952 57.4578 56.927 57.2588C57.1588 57.0598 57.4747 56.8742 57.8748 56.7021C58.2742 56.5265 58.7763 56.3754 59.3808 56.249L59.3038 55.8331C59.2271 55.4189 59.0798 55.1232 58.8618 54.9457C58.6432 54.7648 58.3619 54.7062 58.0179 54.7698C57.7863 54.8127 57.597 54.8786 57.4501 54.9676C57.3061 55.0523 57.183 55.1423 57.0808 55.2374C56.9815 55.3284 56.8953 55.4115 56.8221 55.4868C56.7518 55.5579 56.6762 55.6009 56.5955 55.6159C56.5324 55.6276 56.475 55.6218 56.4236 55.5987C56.3714 55.5721 56.325 55.5371 56.2843 55.4938L56.0603 55.2249ZM64.7804 57.7048C65.3068 57.6073 65.6726 57.3672 65.8775 56.9843C66.0854 56.5974 66.1334 56.1021 66.0216 55.4984C65.9105 54.8982 65.6939 54.4537 65.3718 54.1649C65.0532 53.8754 64.6359 53.7785 64.12 53.874C63.8708 53.9201 63.6537 54.0021 63.4686 54.1199C63.2828 54.2341 63.1337 54.3797 63.0213 54.5566C62.9124 54.7329 62.8398 54.9387 62.8035 55.1741C62.7707 55.4089 62.7807 55.6684 62.8333 55.9527C62.8925 56.2721 62.9788 56.5519 63.0922 56.7923C63.2057 57.0326 63.3436 57.2285 63.506 57.3799C63.6719 57.5307 63.8601 57.6356 64.0707 57.6946C64.2841 57.7495 64.5207 57.7529 64.7804 57.7048ZM64.0391 51.6729C63.687 51.7707 63.3945 51.9066 63.1617 52.0804C62.9324 52.2535 62.7537 52.4645 62.6255 52.7133C62.4967 52.9585 62.4181 53.2399 62.3897 53.5573C62.3614 53.8748 62.3753 54.2243 62.4315 54.6059C62.4845 54.4219 62.5654 54.2508 62.674 54.0928C62.782 53.9312 62.9133 53.7871 63.0677 53.6605C63.2215 53.5304 63.3938 53.4222 63.5848 53.336C63.7786 53.2457 63.9896 53.1794 64.2177 53.1372C64.5722 53.0715 64.9015 53.0759 65.2057 53.1502C65.5127 53.2204 65.7856 53.3514 66.0244 53.5431C66.2667 53.7342 66.4704 53.9814 66.6355 54.2848C66.7999 54.5847 66.9182 54.9294 66.9903 55.319C67.0638 55.7156 67.069 56.0867 67.0059 56.4324C66.9457 56.7738 66.8244 57.0794 66.6421 57.3492C66.459 57.6154 66.221 57.8391 65.9278 58.0205C65.6382 58.2011 65.2986 58.3276 64.9091 58.3997C64.5511 58.466 64.2049 58.4684 63.8704 58.4069C63.536 58.3454 63.2293 58.1989 62.9505 57.9674C62.6717 57.7359 62.4243 57.4096 62.2084 56.9886C61.9953 56.5634 61.8281 56.0227 61.7065 55.3664C61.6025 54.8048 61.5579 54.2795 61.5726 53.7903C61.5873 53.3012 61.6748 52.8621 61.835 52.473C61.9988 52.0833 62.2402 51.7501 62.5592 51.4732C62.881 51.1922 63.2957 50.9811 63.8032 50.8399L65.6787 50.3238L65.821 50.7984C65.8517 50.9052 65.8528 50.9994 65.8243 51.0809C65.7959 51.1624 65.7279 51.2167 65.6204 51.2439L64.0391 51.6729ZM72.4465 51.4119L73.434 56.7448L72.4969 56.9183L71.8262 53.2964C71.8132 53.2262 71.8028 53.1501 71.7948 53.0681C71.7869 52.986 71.7807 52.9037 71.7763 52.821C71.7577 52.8971 71.7382 52.9678 71.7176 53.0333C71.6971 53.0989 71.6738 53.1594 71.6478 53.2151L69.7218 57.1927C69.6936 57.256 69.6545 57.3195 69.6046 57.3832C69.5575 57.4427 69.4989 57.479 69.4287 57.492L68.8601 57.5973L67.8726 52.2643L68.8149 52.0898L69.4857 55.7118C69.498 55.7785 69.5081 55.8528 69.5161 55.9348C69.5234 56.0134 69.5292 56.094 69.5336 56.1766C69.5529 56.1041 69.5731 56.0368 69.5943 55.9748C69.6148 55.9093 69.6363 55.8491 69.6588 55.7941L71.5848 51.8165C71.613 51.7532 71.6524 51.6914 71.703 51.6312C71.7529 51.5675 71.813 51.5292 71.8832 51.5162L72.4465 51.4119ZM78.7133 50.2514L79.7008 55.5843L78.7637 55.7579L78.093 52.1359C78.08 52.0657 78.0696 51.9896 78.0616 51.9076C78.0537 51.8255 78.0475 51.7432 78.0431 51.6605C78.0245 51.7366 78.005 51.8073 77.9844 51.8729C77.9639 51.9384 77.9406 51.9989 77.9146 52.0546L75.9886 56.0322C75.9604 56.0955 75.9213 56.159 75.8714 56.2227C75.8243 56.2822 75.7657 56.3185 75.6955 56.3315L75.1269 56.4368L74.1394 51.1038L75.0817 50.9293L75.7525 54.5513C75.7648 54.618 75.7749 54.6923 75.7829 54.7744C75.7902 54.8529 75.796 54.9335 75.8004 55.0161C75.8197 54.9436 75.8399 54.8763 75.8611 54.8143C75.8816 54.7488 75.9031 54.6886 75.9256 54.6336L77.8516 50.656C77.8799 50.5927 77.9192 50.5309 77.9698 50.4708C78.0197 50.4071 78.0798 50.3687 78.15 50.3557L78.7133 50.2514ZM84.9801 49.0909L85.9676 54.4238L85.0305 54.5974L84.3598 50.9754C84.3468 50.9052 84.3364 50.8291 84.3284 50.7471C84.3205 50.6651 84.3143 50.5827 84.3099 50.5C84.2913 50.5761 84.2718 50.6469 84.2512 50.7124C84.2307 50.7779 84.2074 50.8385 84.1814 50.8941L82.2554 54.8717C82.2272 54.935 82.1881 54.9985 82.1382 55.0622C82.0911 55.1217 82.0325 55.158 81.9623 55.171L81.3938 55.2763L80.4062 49.9434L81.3485 49.7688L82.0193 53.3908C82.0316 53.4575 82.0417 53.5319 82.0497 53.6139C82.057 53.6924 82.0628 53.773 82.0672 53.8557C82.0865 53.7831 82.1067 53.7159 82.1279 53.6538C82.1484 53.5883 82.1699 53.5281 82.1924 53.4731L84.1184 49.4955C84.1467 49.4322 84.186 49.3705 84.2366 49.3103C84.2865 49.2466 84.3466 49.2082 84.4168 49.1952L84.9801 49.0909ZM82.5143 48.2135C82.6582 48.1868 82.7764 48.1486 82.8688 48.0988C82.9606 48.0455 83.0295 47.9765 83.0755 47.8918C83.125 47.8064 83.1531 47.7032 83.1597 47.5821C83.1664 47.4611 83.1541 47.3164 83.1229 47.1479L83.6704 47.0465C83.7371 47.0342 83.7935 47.0546 83.8396 47.1078C83.8858 47.1609 83.9154 47.2226 83.9283 47.2928C83.9608 47.4683 83.955 47.6327 83.9108 47.7861C83.8666 47.9395 83.7872 48.0794 83.6727 48.2059C83.5611 48.3282 83.4153 48.4332 83.2356 48.521C83.0558 48.6087 82.8466 48.6747 82.6079 48.7189C82.3693 48.7631 82.1503 48.7764 81.951 48.7588C81.7518 48.7413 81.5764 48.6957 81.4248 48.6222C81.2761 48.5444 81.1536 48.4419 81.0574 48.3145C80.9613 48.1871 80.8969 48.0357 80.8644 47.8602C80.8514 47.79 80.8569 47.7218 80.881 47.6556C80.905 47.5895 80.9504 47.5502 81.0171 47.5379L81.5646 47.4365C81.5958 47.6049 81.6362 47.7445 81.6857 47.8551C81.7352 47.9657 81.7966 48.0524 81.8699 48.115C81.9468 48.177 82.0375 48.2165 82.1423 48.2334C82.2464 48.2468 82.3704 48.2401 82.5143 48.2135ZM87.3944 53.5607C87.3775 53.4694 87.3774 53.3805 87.394 53.2939C87.4142 53.2067 87.4468 53.1281 87.4919 53.058C87.5405 52.9873 87.6019 52.9269 87.6762 52.8769C87.7504 52.8268 87.8331 52.7934 87.9244 52.7765C88.0156 52.7596 88.1049 52.7612 88.1921 52.7813C88.2793 52.8015 88.3583 52.8359 88.429 52.8845C88.4997 52.9331 88.5601 52.9945 88.6101 53.0688C88.6602 53.143 88.6936 53.2257 88.7105 53.317C88.7281 53.4117 88.7268 53.5027 88.7066 53.5899C88.6858 53.6736 88.6511 53.7509 88.6025 53.8216C88.5539 53.8923 88.4921 53.9509 88.4173 53.9974C88.3431 54.0475 88.2603 54.081 88.1691 54.0979C88.0778 54.1148 87.9886 54.1131 87.9014 54.093C87.8148 54.0763 87.7361 54.0437 87.6654 53.9951C87.5982 53.9458 87.5399 53.8858 87.4905 53.8151C87.444 53.7403 87.412 53.6554 87.3944 53.5607ZM90.0933 53.0609C90.0764 52.9697 90.0763 52.8807 90.0929 52.7942C90.113 52.7069 90.1457 52.6283 90.1908 52.5582C90.2394 52.4875 90.3008 52.4272 90.375 52.3771C90.4493 52.3271 90.532 52.2936 90.6232 52.2767C90.7145 52.2598 90.8037 52.2614 90.891 52.2816C90.9782 52.3017 91.0571 52.3361 91.1279 52.3847C91.1986 52.4333 91.2589 52.4948 91.309 52.569C91.359 52.6432 91.3925 52.7259 91.4094 52.8172C91.427 52.9119 91.4257 53.0029 91.4055 53.0902C91.3847 53.1739 91.35 53.2511 91.3014 53.3218C91.2528 53.3925 91.191 53.4511 91.1162 53.4977C91.0419 53.5477 90.9592 53.5812 90.8679 53.5981C90.7767 53.615 90.6875 53.6134 90.6002 53.5932C90.5137 53.5766 90.435 53.5439 90.3643 53.4953C90.2971 53.4461 90.2388 53.3861 90.1894 53.3154C90.1429 53.2405 90.1108 53.1557 90.0933 53.0609ZM92.7922 52.5611C92.7753 52.4699 92.7751 52.381 92.7918 52.2944C92.8119 52.2072 92.8445 52.1285 92.8897 52.0585C92.9383 51.9878 92.9997 51.9274 93.0739 51.8773C93.1481 51.8273 93.2309 51.7938 93.3221 51.7769C93.4134 51.76 93.5026 51.7616 93.5898 51.7818C93.677 51.8019 93.756 51.8363 93.8267 51.8849C93.8974 51.9336 93.9578 51.995 94.0079 52.0692C94.0579 52.1434 94.0914 52.2262 94.1083 52.3174C94.1258 52.4122 94.1245 52.5032 94.1044 52.5904C94.0836 52.6741 94.0489 52.7513 94.0003 52.822C93.9516 52.8927 93.8899 52.9514 93.815 52.9979C93.7408 53.0479 93.6581 53.0814 93.5668 53.0983C93.4756 53.1152 93.3863 53.1136 93.2991 53.0934C93.2125 53.0768 93.1339 53.0442 93.0632 52.9955C92.996 52.9463 92.9377 52.8863 92.8883 52.8156C92.8417 52.7407 92.8097 52.6559 92.7922 52.5611Z"/>
<rect fill="#0070FF" transform="rotate(-10.4912 129.485 30.7853)" rx="10.5987" height="21.6391" width="21.1974" y="30.7853" x="129.485"/>
<path stroke-linecap="round" stroke-width="1.3385" stroke="white" d="M138.568 37.2192L145.186 41.769"/>
<path stroke-linecap="round" stroke-width="1.3385" stroke="white" d="M139.602 42.803L144.152 36.1851"/>
<path stroke-miterlimit="10" stroke-width="4.0155" stroke="url(#paint0_linear_7_3802)" d="M139.234 102.796C142.061 118.063 132.087 132.569 116.952 135.372C101.685 138.199 87.1785 128.226 84.3514 112.959C81.5486 97.8234 91.5219 83.3168 106.789 80.4897C121.924 77.6869 136.431 87.6603 139.234 102.796Z"/>
<path stroke-miterlimit="10" stroke-width="0.803099" stroke="url(#paint1_radial_7_3802)" fill="#0070FF" d="M136.29 81.0163C137.318 80.6897 138.254 81.3331 138.449 82.386C138.751 83.2829 138.132 84.3505 137.211 84.5211C136.182 84.8477 135.115 84.2286 134.92 83.1757C134.749 82.2545 135.237 81.2113 136.29 81.0163Z"/>
<path stroke-miterlimit="10" stroke-width="0.803099" stroke="url(#paint2_radial_7_3802)" fill="#0070FF" d="M130.66 76.3416C131.581 76.171 132.624 76.6584 132.819 77.7113C133.121 78.6082 132.502 79.6758 131.449 79.8707C130.552 80.173 129.485 79.5539 129.29 78.501C128.988 77.6041 129.607 76.5366 130.66 76.3416Z"/>
<path stroke-miterlimit="10" stroke-width="0.803099" stroke="url(#paint3_radial_7_3802)" fill="#0070FF" d="M124.064 73.0708C124.986 72.9002 126.053 73.5193 126.224 74.4406C126.55 75.4691 125.907 76.405 124.878 76.7316C123.957 76.9022 122.89 76.2831 122.719 75.3618C122.392 74.3333 123.036 73.3974 124.064 73.0708Z"/>
<path stroke-miterlimit="10" stroke-width="0.803099" stroke="url(#paint4_radial_7_3802)" fill="#0070FF" d="M117.055 71.238C117.952 70.9357 119.019 71.5548 119.214 72.6077C119.385 73.529 118.897 74.5722 117.844 74.7671C116.947 75.0693 115.88 74.4502 115.685 73.3973C115.383 72.5004 116.002 71.4329 117.055 71.238Z"/>
<path stroke-miterlimit="10" stroke-width="0.803099" stroke="url(#paint5_radial_7_3802)" fill="#0070FF" d="M109.524 70.999C110.421 70.6968 111.488 71.3159 111.683 72.3688C111.985 73.2657 111.366 74.3332 110.313 74.5282C109.416 74.8304 108.349 74.2114 108.154 73.1585C107.983 72.2372 108.471 71.194 109.524 70.999Z"/>
<path stroke-miterlimit="10" stroke-width="0.803099" stroke="url(#paint6_radial_7_3802)" fill="#0070FF" d="M102.236 72.0763C103.158 71.9057 104.225 72.5247 104.396 73.446C104.722 74.4745 104.079 75.4104 103.05 75.737C102.129 75.9076 101.062 75.2886 100.891 74.3673C100.564 73.3388 101.208 72.4028 102.236 72.0763Z"/>
<path stroke-miterlimit="10" stroke-width="0.803099" stroke="url(#paint7_radial_7_3802)" fill="#0070FF" d="M95.2656 74.8644C96.2941 74.5379 97.23 75.1813 97.5566 76.2098C97.7272 77.1311 97.1082 78.1986 96.1869 78.3692C95.134 78.5641 94.2224 78.0523 93.8959 77.0238C93.7253 76.1025 94.3443 75.0351 95.2656 74.8644Z"/>
<path stroke-miterlimit="10" stroke-width="0.803099" stroke="url(#paint8_radial_7_3802)" fill="#0070FF" d="M89.1969 78.847C90.1181 78.6763 91.1613 79.1638 91.3563 80.2167C91.6829 81.2452 91.0394 82.1812 89.9865 82.3761C89.0896 82.6783 88.0221 82.0593 87.8515 81.138C87.5249 80.1094 88.144 79.0419 89.1969 78.847Z"/>
<path stroke-miterlimit="10" stroke-width="0.803099" stroke="url(#paint9_radial_7_3802)" fill="#0070FF" d="M84.0298 84.0236C85.0827 83.8286 86.0186 84.4721 86.1892 85.3934C86.5158 86.422 85.8724 87.3579 84.9755 87.6601C83.9226 87.8551 82.855 87.2359 82.6844 86.3146C82.4895 85.2617 83.0013 84.3502 84.0298 84.0236Z"/>
<path stroke-miterlimit="10" stroke-width="0.803099" stroke="url(#paint10_radial_7_3802)" fill="#0070FF" d="M80.1593 90.3215C81.2122 90.1266 82.1481 90.77 82.4504 91.6669C82.6453 92.7198 82.0019 93.6557 81.105 93.9579C80.0521 94.1529 79.1162 93.5095 78.8139 92.6126C78.619 91.5597 79.1308 90.6481 80.1593 90.3215Z"/>
<path stroke-miterlimit="10" stroke-width="0.803099" stroke="url(#paint11_radial_7_3802)" fill="#0070FF" d="M77.6197 97.1897C78.5166 96.8875 79.5841 97.5065 79.7791 98.5594C80.0813 99.4563 79.4622 100.524 78.4093 100.719C77.488 100.889 76.4449 100.402 76.2499 99.349C75.9477 98.4521 76.5668 97.3846 77.6197 97.1897Z"/>
<path stroke-miterlimit="10" stroke-width="0.803099" stroke="url(#paint12_radial_7_3802)" fill="#0070FF" d="M76.3864 104.497C77.3077 104.326 78.3752 104.945 78.5458 105.866C78.8724 106.895 78.229 107.831 77.2005 108.157C76.2792 108.328 75.2117 107.709 75.0411 106.788C74.7145 105.759 75.3579 104.823 76.3864 104.497Z"/>
<path stroke-miterlimit="10" stroke-width="0.803099" stroke="url(#paint13_radial_7_3802)" fill="#0070FF" d="M76.6984 112.062C77.7269 111.735 78.7944 112.354 78.9894 113.407C79.16 114.329 78.6725 115.372 77.6196 115.567C76.5667 115.762 75.6552 115.25 75.4602 114.197C75.1336 113.168 75.7771 112.232 76.6984 112.062Z"/>
<path stroke-miterlimit="10" stroke-width="0.803099" stroke="url(#paint14_radial_7_3802)" fill="#0070FF" d="M80.6857 119.627C81.2511 120.475 81.1828 121.577 80.359 122.274C79.6669 122.947 78.4093 122.771 77.8682 122.055C77.1711 121.231 77.2394 120.129 78.0632 119.432C78.7554 118.759 80.013 118.935 80.6857 119.627Z"/>
<path stroke-miterlimit="10" stroke-width="0.803099" stroke="url(#paint15_radial_7_3802)" fill="#0070FF" d="M84.1076 126.344C84.8047 127.168 84.7364 128.27 83.9126 128.967C83.0888 129.664 81.9628 129.464 81.2901 128.772C80.7247 127.923 80.7929 126.822 81.6167 126.125C82.3089 125.452 83.5665 125.628 84.1076 126.344Z"/>
<path stroke-miterlimit="10" stroke-width="0.803099" stroke="url(#paint16_radial_7_3802)" fill="#0070FF" d="M88.8553 132.135C89.528 132.827 89.4842 134.061 88.636 134.626C87.8122 135.323 86.7105 135.255 86.0135 134.431C85.4481 133.583 85.5163 132.481 86.3401 131.784C87.0567 131.243 88.2899 131.287 88.8553 132.135Z"/>
<path stroke-miterlimit="10" stroke-width="0.803099" stroke="url(#paint17_radial_7_3802)" fill="#0070FF" d="M95.0508 137.658C95.1142 138.735 94.3148 139.564 93.3691 139.603C92.2919 139.666 91.4632 138.867 91.4242 137.921C91.3608 136.844 92.1603 136.015 93.2375 135.952C94.1832 135.913 95.0119 136.712 95.0508 137.658Z"/>
<path stroke-miterlimit="10" stroke-width="0.803099" stroke="url(#paint18_radial_7_3802)" fill="#0070FF" d="M141.322 85.3933C140.377 85.4323 139.602 86.3925 139.797 87.4454C139.836 88.3911 140.796 89.1661 141.849 88.9711C142.77 88.8005 143.57 87.9719 143.375 86.919C143.336 85.9733 142.375 85.1983 141.322 85.3933Z"/>
<path stroke-miterlimit="10" stroke-width="0.803099" stroke="url(#paint19_radial_7_3802)" fill="#0070FF" d="M145.091 91.774C144.169 91.9446 143.394 92.9049 143.565 93.8262C143.628 94.9035 144.564 95.5469 145.641 95.4835C146.563 95.3129 147.338 94.3526 147.167 93.4313C147.104 92.354 146.168 91.7106 145.091 91.774Z"/>
<path stroke-miterlimit="10" stroke-width="0.803099" stroke="url(#paint20_radial_7_3802)" fill="#0070FF" d="M147.508 98.9493C146.431 99.0127 145.656 99.9729 145.851 101.026C146.022 101.947 146.85 102.747 147.903 102.552C148.956 102.357 149.624 101.552 149.429 100.499C149.365 99.4221 148.43 98.7787 147.508 98.9493Z"/>
<path stroke-miterlimit="10" stroke-width="0.803099" stroke="url(#paint21_radial_7_3802)" fill="#0070FF" d="M146.494 107.441C146.27 108.435 146.728 109.439 147.747 109.795C148.634 110.175 149.746 109.561 149.994 108.698C150.35 107.68 149.892 106.675 148.873 106.32C147.986 105.939 146.874 106.554 146.494 107.441Z"/>
<path stroke-miterlimit="10" stroke-width="0.803099" stroke="url(#paint22_radial_7_3802)" fill="#0070FF" d="M145.704 114.938C145.349 115.957 145.807 116.961 146.826 117.317C147.844 117.672 148.824 117.083 149.204 116.195C149.429 115.201 148.97 114.197 147.952 113.841C147.064 113.461 145.953 114.075 145.704 114.938Z"/>
<path stroke-miterlimit="10" stroke-width="0.803099" stroke="url(#paint23_radial_7_3802)" fill="#0070FF" d="M143.345 122.045C142.965 122.932 143.448 124.068 144.442 124.292C145.461 124.648 146.465 124.19 146.821 123.171C147.045 122.177 146.587 121.172 145.568 120.816C144.705 120.568 143.569 121.05 143.345 122.045Z"/>
<path stroke-miterlimit="10" stroke-width="0.803099" stroke="url(#paint24_radial_7_3802)" fill="#0070FF" d="M139.538 129.42C139.865 130.448 140.908 130.936 141.805 130.634C142.833 130.307 143.321 129.264 143.018 128.367C142.692 127.339 141.649 126.851 140.62 127.178C139.723 127.48 139.236 128.523 139.538 129.42Z"/>
<path fill="#003262" d="M100.032 113.109L100.303 114.57L93.9855 115.74L93.715 114.279L96.0287 113.851L94.796 107.194C94.7473 106.93 94.7049 106.658 94.6691 106.376L93.281 108.054C93.1999 108.145 93.1139 108.21 93.023 108.249C92.9365 108.281 92.8496 108.297 92.7624 108.297C92.6805 108.296 92.6046 108.283 92.5346 108.258C92.4636 108.227 92.408 108.191 92.3676 108.15L91.5952 107.419L94.5293 103.813L96.1323 103.516L97.9792 113.489L100.032 113.109ZM109.315 106.996C109.499 107.991 109.552 108.877 109.473 109.654C109.397 110.425 109.215 111.085 108.924 111.634C108.639 112.182 108.261 112.623 107.789 112.955C107.321 113.281 106.79 113.5 106.195 113.61C105.6 113.72 105.026 113.706 104.472 113.569C103.923 113.426 103.417 113.15 102.955 112.74C102.492 112.33 102.088 111.778 101.742 111.086C101.395 110.388 101.129 109.541 100.945 108.546C100.759 107.546 100.704 106.66 100.779 105.89C100.855 105.119 101.035 104.459 101.32 103.911C101.605 103.363 101.978 102.926 102.441 102.601C102.908 102.269 103.439 102.049 104.034 101.938C104.628 101.828 105.203 101.844 105.758 101.987C106.316 102.123 106.827 102.396 107.29 102.806C107.757 103.214 108.164 103.765 108.51 104.458C108.862 105.15 109.13 105.996 109.315 106.996ZM107.302 107.369C107.148 106.543 106.961 105.869 106.74 105.35C106.518 104.83 106.275 104.428 106.01 104.145C105.751 103.861 105.478 103.68 105.191 103.603C104.904 103.52 104.618 103.505 104.333 103.557C104.054 103.609 103.795 103.725 103.556 103.905C103.322 104.079 103.134 104.346 102.994 104.704C102.853 105.062 102.773 105.523 102.752 106.088C102.736 106.652 102.805 107.347 102.958 108.173C103.111 109 103.296 109.673 103.512 110.194C103.734 110.714 103.974 111.116 104.234 111.4C104.493 111.684 104.764 111.868 105.047 111.952C105.333 112.03 105.616 112.043 105.895 111.991C106.179 111.938 106.441 111.824 106.681 111.649C106.92 111.469 107.11 111.2 107.25 110.842C107.396 110.482 107.479 110.02 107.5 109.456C107.521 108.891 107.455 108.196 107.302 107.369ZM118.793 105.241C118.977 106.236 119.029 107.122 118.95 107.899C118.875 108.67 118.692 109.33 118.402 109.879C118.117 110.427 117.738 110.868 117.266 111.2C116.798 111.526 116.267 111.745 115.672 111.855C115.077 111.965 114.503 111.951 113.949 111.814C113.4 111.671 112.894 111.395 112.432 110.985C111.969 110.575 111.565 110.023 111.219 109.331C110.872 108.633 110.606 107.786 110.422 106.791C110.237 105.791 110.182 104.905 110.257 104.135C110.332 103.364 110.512 102.704 110.797 102.156C111.082 101.608 111.456 101.171 111.918 100.846C112.385 100.514 112.916 100.294 113.511 100.183C114.106 100.073 114.68 100.089 115.235 100.232C115.794 100.368 116.304 100.641 116.767 101.051C117.235 101.459 117.642 102.01 117.988 102.703C118.339 103.395 118.607 104.241 118.793 105.241ZM116.779 105.614C116.626 104.787 116.439 104.114 116.217 103.594C115.996 103.075 115.752 102.673 115.488 102.39C115.228 102.106 114.955 101.925 114.668 101.848C114.381 101.765 114.095 101.75 113.811 101.802C113.532 101.854 113.273 101.97 113.034 102.15C112.799 102.324 112.612 102.591 112.471 102.949C112.33 103.307 112.25 103.768 112.229 104.333C112.214 104.897 112.283 105.592 112.436 106.418C112.589 107.245 112.773 107.918 112.99 108.439C113.211 108.959 113.452 109.361 113.711 109.645C113.971 109.929 114.242 110.113 114.524 110.197C114.811 110.275 115.093 110.288 115.372 110.236C115.657 110.183 115.919 110.069 116.159 109.894C116.397 109.714 116.587 109.445 116.728 109.087C116.874 108.727 116.957 108.265 116.977 107.701C116.998 107.136 116.932 106.441 116.779 105.614ZM124.842 101.074C124.922 101.506 124.92 101.909 124.837 102.284C124.76 102.658 124.623 102.991 124.426 103.283C124.229 103.57 123.982 103.809 123.685 104C123.388 104.191 123.066 104.319 122.719 104.383C122.34 104.454 121.977 104.453 121.632 104.38C121.286 104.308 120.973 104.173 120.691 103.975C120.414 103.77 120.177 103.506 119.981 103.183C119.785 102.86 119.647 102.483 119.567 102.051C119.485 101.609 119.477 101.197 119.542 100.814C119.608 100.432 119.733 100.096 119.919 99.8053C120.11 99.514 120.354 99.2728 120.651 99.0817C120.946 98.8854 121.284 98.7521 121.663 98.6819C122.042 98.6118 122.405 98.6154 122.751 98.6928C123.102 98.7639 123.419 98.9013 123.701 99.1049C123.984 99.3084 124.225 99.577 124.422 99.9106C124.62 100.244 124.76 100.632 124.842 101.074ZM123.342 101.352C123.285 101.047 123.206 100.797 123.105 100.604C123.009 100.409 122.897 100.258 122.768 100.152C122.645 100.044 122.507 99.9767 122.355 99.9504C122.208 99.9178 122.055 99.9162 121.897 99.9454C121.739 99.9747 121.597 100.031 121.471 100.114C121.344 100.192 121.242 100.304 121.165 100.448C121.094 100.592 121.048 100.772 121.028 100.988C121.008 101.204 121.027 101.465 121.083 101.77C121.138 102.065 121.213 102.307 121.308 102.497C121.402 102.681 121.507 102.825 121.624 102.928C121.747 103.031 121.881 103.096 122.028 103.123C122.175 103.15 122.327 103.149 122.485 103.12C122.643 103.091 122.785 103.037 122.912 102.959C123.045 102.88 123.15 102.771 123.227 102.631C123.31 102.491 123.363 102.318 123.384 102.112C123.411 101.9 123.396 101.647 123.342 101.352ZM128.186 97.9151C128.239 97.8235 128.305 97.7378 128.383 97.658C128.466 97.5773 128.592 97.5214 128.76 97.4902L130.182 97.2269L123.761 109.924C123.708 110.021 123.64 110.107 123.556 110.183C123.471 110.253 123.36 110.3 123.223 110.326L121.77 110.595L128.186 97.9151ZM132.399 105.85C132.479 106.281 132.478 106.685 132.395 107.059C132.317 107.433 132.18 107.766 131.983 108.058C131.786 108.345 131.539 108.587 131.244 108.783C130.947 108.974 130.625 109.102 130.277 109.167C129.898 109.237 129.536 109.236 129.191 109.164C128.844 109.086 128.53 108.948 128.248 108.75C127.971 108.545 127.734 108.282 127.538 107.959C127.342 107.636 127.204 107.258 127.124 106.826C127.042 106.384 127.034 105.972 127.099 105.59C127.165 105.207 127.29 104.871 127.476 104.581C127.667 104.289 127.911 104.048 128.208 103.857C128.504 103.661 128.841 103.527 129.22 103.457C129.599 103.387 129.962 103.391 130.308 103.468C130.659 103.539 130.973 103.677 131.251 103.882C131.533 104.085 131.774 104.354 131.972 104.687C132.175 105.02 132.317 105.407 132.399 105.85ZM130.891 106.129C130.834 105.824 130.758 105.574 130.662 105.379C130.566 105.184 130.454 105.034 130.325 104.927C130.202 104.819 130.064 104.752 129.912 104.726C129.765 104.693 129.612 104.691 129.454 104.721C129.296 104.75 129.154 104.806 129.028 104.889C128.901 104.967 128.799 105.079 128.722 105.224C128.646 105.369 128.597 105.549 128.578 105.765C128.563 105.98 128.584 106.24 128.64 106.546C128.695 106.84 128.767 107.083 128.857 107.273C128.952 107.463 129.06 107.609 129.183 107.711C129.305 107.814 129.44 107.879 129.587 107.906C129.733 107.933 129.885 107.932 130.043 107.903C130.201 107.874 130.344 107.82 130.471 107.742C130.603 107.663 130.708 107.554 130.786 107.414C130.869 107.274 130.921 107.098 130.942 106.887C130.962 106.677 130.946 106.424 130.891 106.129Z"/>
<path fill="#003262" d="M107.43 166.938L105.382 167.317L106.237 171.934L105.3 172.108L104.445 167.491L102.397 167.87L102.264 167.154L107.297 166.222L107.43 166.938ZM111.783 168.424C111.354 168.518 110.992 168.622 110.697 168.734C110.405 168.843 110.171 168.959 109.994 169.082C109.821 169.205 109.701 169.334 109.635 169.47C109.573 169.605 109.556 169.746 109.583 169.893C109.609 170.034 109.654 170.151 109.719 170.244C109.783 170.337 109.86 170.41 109.95 170.463C110.042 170.511 110.144 170.541 110.255 170.553C110.369 170.561 110.488 170.554 110.611 170.531C110.775 170.5 110.923 170.457 111.054 170.4C111.185 170.339 111.304 170.266 111.411 170.181C111.523 170.095 111.624 169.998 111.717 169.89C111.813 169.782 111.903 169.662 111.988 169.53L111.783 168.424ZM108.352 166.805C108.595 166.466 108.873 166.195 109.187 165.992C109.502 165.788 109.866 165.648 110.28 165.572C110.579 165.516 110.853 165.517 111.102 165.572C111.352 165.627 111.572 165.728 111.763 165.874C111.953 166.021 112.112 166.211 112.239 166.445C112.366 166.679 112.457 166.946 112.512 167.244L113.144 170.655L112.728 170.732C112.637 170.749 112.564 170.748 112.509 170.729C112.454 170.707 112.405 170.654 112.36 170.572L112.162 170.086C112.045 170.242 111.93 170.383 111.815 170.509C111.7 170.632 111.575 170.742 111.441 170.84C111.306 170.934 111.157 171.014 110.995 171.08C110.838 171.149 110.657 171.203 110.453 171.241C110.246 171.279 110.046 171.287 109.853 171.265C109.66 171.239 109.484 171.181 109.326 171.09C109.171 170.999 109.037 170.873 108.924 170.713C108.813 170.548 108.736 170.344 108.691 170.102C108.652 169.892 108.672 169.679 108.752 169.465C108.832 169.247 108.987 169.038 109.219 168.839C109.451 168.64 109.767 168.455 110.167 168.283C110.566 168.107 111.068 167.956 111.673 167.829L111.596 167.414C111.519 166.999 111.372 166.704 111.154 166.526C110.935 166.345 110.654 166.287 110.31 166.35C110.078 166.393 109.889 166.459 109.742 166.548C109.598 166.633 109.475 166.723 109.373 166.818C109.274 166.909 109.187 166.992 109.114 167.067C109.044 167.138 108.968 167.181 108.888 167.196C108.824 167.208 108.767 167.202 108.716 167.179C108.664 167.152 108.617 167.118 108.576 167.074L108.352 166.805ZM115.486 168.893C115.701 169.093 115.919 169.221 116.14 169.278C116.361 169.335 116.598 169.34 116.851 169.294C117.349 169.201 117.699 168.953 117.9 168.549C118.101 168.146 118.141 167.615 118.019 166.959C117.955 166.612 117.868 166.319 117.759 166.082C117.653 165.844 117.528 165.656 117.383 165.52C117.237 165.38 117.073 165.289 116.891 165.246C116.709 165.203 116.511 165.202 116.297 165.242C115.991 165.298 115.736 165.418 115.53 165.601C115.328 165.784 115.154 166.021 115.008 166.313L115.486 168.893ZM114.842 165.68C115.015 165.361 115.234 165.09 115.497 164.867C115.761 164.644 116.082 164.497 116.461 164.427C116.77 164.37 117.06 164.378 117.332 164.451C117.602 164.521 117.847 164.655 118.065 164.854C118.283 165.05 118.471 165.309 118.628 165.632C118.786 165.955 118.906 166.338 118.988 166.78C119.061 167.173 119.076 167.549 119.034 167.909C118.991 168.266 118.893 168.587 118.739 168.873C118.588 169.155 118.382 169.395 118.12 169.592C117.862 169.785 117.554 169.915 117.196 169.981C116.87 170.042 116.579 170.039 116.323 169.974C116.071 169.904 115.837 169.788 115.622 169.625L116.058 171.983L115.116 172.158L113.794 165.019L114.357 164.915C114.491 164.89 114.585 164.94 114.641 165.064L114.842 165.68ZM123.183 163.553C123.218 163.466 123.271 163.391 123.343 163.327C123.414 163.263 123.496 163.223 123.587 163.206L124.319 163.07L123.31 165.359C123.25 165.504 123.182 165.627 123.107 165.728C123.03 165.826 122.93 165.91 122.805 165.98C122.982 165.995 123.137 166.04 123.271 166.117C123.405 166.191 123.531 166.294 123.65 166.428L125.459 168.375L124.806 168.496C124.638 168.527 124.503 168.523 124.401 168.484C124.299 168.444 124.205 168.378 124.119 168.285L122.775 166.819C122.559 166.576 122.286 166.485 121.957 166.546L121.383 166.652L121.827 169.053L120.885 169.227L119.896 163.889L120.839 163.715L121.266 166.02L121.771 165.927C122.052 165.875 122.249 165.715 122.363 165.447L123.183 163.553ZM130.131 161.994L131.119 167.327L130.182 167.5L129.511 163.878C129.498 163.808 129.488 163.732 129.48 163.65C129.472 163.568 129.466 163.485 129.461 163.403C129.443 163.479 129.423 163.55 129.403 163.615C129.382 163.681 129.359 163.741 129.333 163.797L127.407 167.774C127.379 167.838 127.339 167.901 127.29 167.965C127.242 168.025 127.184 168.061 127.114 168.074L126.545 168.179L125.558 162.846L126.5 162.672L127.171 166.294C127.183 166.36 127.193 166.435 127.201 166.517C127.208 166.595 127.214 166.676 127.219 166.758C127.238 166.686 127.258 166.619 127.279 166.557C127.3 166.491 127.321 166.431 127.344 166.376L129.27 162.398C129.298 162.335 129.337 162.273 129.388 162.213C129.438 162.149 129.498 162.111 129.568 162.098L130.131 161.994ZM135.102 165.947C135.628 165.849 135.994 165.609 136.199 165.226C136.407 164.839 136.455 164.344 136.343 163.74C136.232 163.14 136.015 162.696 135.693 162.407C135.375 162.117 134.957 162.02 134.441 162.116C134.192 162.162 133.975 162.244 133.79 162.362C133.604 162.476 133.455 162.621 133.343 162.798C133.234 162.975 133.161 163.18 133.125 163.416C133.092 163.651 133.102 163.91 133.155 164.194C133.214 164.514 133.3 164.794 133.414 165.034C133.527 165.274 133.665 165.47 133.827 165.622C133.993 165.773 134.181 165.877 134.392 165.936C134.605 165.991 134.842 165.995 135.102 165.947ZM134.36 159.915C134.008 160.013 133.716 160.148 133.483 160.322C133.254 160.495 133.075 160.706 132.947 160.955C132.818 161.2 132.739 161.482 132.711 161.799C132.683 162.117 132.697 162.466 132.753 162.848C132.806 162.664 132.887 162.493 132.995 162.335C133.103 162.173 133.235 162.029 133.389 161.902C133.543 161.772 133.715 161.664 133.906 161.578C134.1 161.487 134.311 161.421 134.539 161.379C134.894 161.313 135.223 161.318 135.527 161.392C135.834 161.462 136.107 161.593 136.346 161.785C136.588 161.976 136.792 162.223 136.957 162.527C137.121 162.826 137.24 163.171 137.312 163.561C137.385 163.957 137.39 164.329 137.327 164.674C137.267 165.016 137.146 165.321 136.963 165.591C136.78 165.857 136.542 166.081 136.249 166.262C135.96 166.443 135.62 166.569 135.23 166.641C134.872 166.708 134.526 166.71 134.192 166.649C133.857 166.587 133.551 166.441 133.272 166.209C132.993 165.978 132.746 165.651 132.53 165.23C132.317 164.805 132.149 164.264 132.028 163.608C131.924 163.047 131.879 162.521 131.894 162.032C131.909 161.543 131.996 161.104 132.156 160.715C132.32 160.325 132.562 159.992 132.881 159.715C133.202 159.434 133.617 159.223 134.125 159.082L136 158.566L136.142 159.04C136.173 159.147 136.174 159.241 136.146 159.323C136.117 159.404 136.049 159.459 135.942 159.486L134.36 159.915ZM142.768 159.654L143.755 164.987L142.818 165.16L142.148 161.538C142.135 161.468 142.124 161.392 142.116 161.31C142.108 161.228 142.102 161.145 142.098 161.063C142.079 161.139 142.06 161.21 142.039 161.275C142.018 161.341 141.995 161.401 141.969 161.457L140.043 165.434C140.015 165.498 139.976 165.561 139.926 165.625C139.879 165.684 139.82 165.721 139.75 165.734L139.182 165.839L138.194 160.506L139.136 160.332L139.807 163.954C139.819 164.02 139.83 164.095 139.837 164.177C139.845 164.255 139.851 164.336 139.855 164.418C139.874 164.346 139.894 164.279 139.916 164.217C139.936 164.151 139.958 164.091 139.98 164.036L141.906 160.058C141.934 159.995 141.974 159.933 142.024 159.873C142.074 159.809 142.134 159.771 142.205 159.758L142.768 159.654Z"/>
</g>
<defs>
<filter color-interpolation-filters="sRGB" filterUnits="userSpaceOnUse" height="227.224" width="213.669" y="-2.06964" x="-1.79322" id="filter0_d_7_3802">
<feFlood result="BackgroundImageFix" flood-opacity="0"/>
<feColorMatrix result="hardAlpha" values="0 0 0 0 0 0 0 0 0 0 0 0 0 0 0 0 0 0 127 0" type="matrix" in="SourceAlpha"/>
<feOffset dy="8.03099" dx="-6.69249"/>
<feGaussianBlur stdDeviation="13.0504"/>
<feComposite operator="out" in2="hardAlpha"/>
<feColorMatrix values="0 0 0 0 0.819608 0 0 0 0 0.843137 0 0 0 0 0.929412 0 0 0 1 0" type="matrix"/>
<feBlend result="effect1_dropShadow_7_3802" in2="BackgroundImageFix" mode="normal"/>
<feBlend result="shape" in2="effect1_dropShadow_7_3802" in="SourceGraphic" mode="normal"/>
</filter>
<linearGradient gradientUnits="userSpaceOnUse" y2="75.3614" x2="134.211" y1="85.5362" x1="79.2651" id="paint0_linear_7_3802">
<stop stop-color="#0070FF"/>
<stop stop-color="#0070FF" offset="0.282"/>
<stop stop-color="#0070FF" offset="0.573"/>
<stop stop-color="#0070FF" offset="1"/>
</linearGradient>
<radialGradient gradientTransform="translate(136.721 82.7783) rotate(-10.4912) scale(1.83777)" gradientUnits="userSpaceOnUse" r="1" cy="0" cx="0" id="paint1_radial_7_3802">
<stop stop-color="#0070FF"/>
<stop stop-color="#0070FF" offset="1"/>
</radialGradient>
<radialGradient gradientTransform="translate(131.046 78.1294) rotate(-10.4912) scale(1.83777)" gradientUnits="userSpaceOnUse" r="1" cy="0" cx="0" id="paint2_radial_7_3802">
<stop stop-color="#0070FF"/>
<stop stop-color="#0070FF" offset="1"/>
</radialGradient>
<radialGradient gradientTransform="translate(124.481 74.8953) rotate(-10.4912) scale(1.83777 1.83775)" gradientUnits="userSpaceOnUse" r="1" cy="0" cx="0" id="paint3_radial_7_3802">
<stop stop-color="#0070FF"/>
<stop stop-color="#0070FF" offset="1"/>
</radialGradient>
<radialGradient gradientTransform="translate(117.43 73.013) rotate(-10.4912) scale(1.83777)" gradientUnits="userSpaceOnUse" r="1" cy="0" cx="0" id="paint4_radial_7_3802">
<stop stop-color="#0070FF"/>
<stop stop-color="#0070FF" offset="1"/>
</radialGradient>
<radialGradient gradientTransform="translate(109.937 72.7628) rotate(-10.4912) scale(1.83777)" gradientUnits="userSpaceOnUse" r="1" cy="0" cx="0" id="paint5_radial_7_3802">
<stop stop-color="#0070FF"/>
<stop stop-color="#0070FF" offset="1"/>
</radialGradient>
<radialGradient gradientTransform="translate(102.646 73.883) rotate(-10.4912) scale(1.83777 1.83775)" gradientUnits="userSpaceOnUse" r="1" cy="0" cx="0" id="paint6_radial_7_3802">
<stop stop-color="#0070FF"/>
<stop stop-color="#0070FF" offset="1"/>
</radialGradient>
<radialGradient gradientTransform="translate(95.7415 76.5963) rotate(-10.4912) scale(1.83775 1.83773)" gradientUnits="userSpaceOnUse" r="1" cy="0" cx="0" id="paint7_radial_7_3802">
<stop stop-color="#0070FF"/>
<stop stop-color="#0070FF" offset="1"/>
</radialGradient>
<radialGradient gradientTransform="translate(89.6051 80.6472) rotate(-10.4912) scale(1.83777)" gradientUnits="userSpaceOnUse" r="1" cy="0" cx="0" id="paint8_radial_7_3802">
<stop stop-color="#0070FF"/>
<stop stop-color="#0070FF" offset="1"/>
</radialGradient>
<radialGradient gradientTransform="translate(84.4702 85.8356) rotate(-10.4912) scale(1.83777 1.83779)" gradientUnits="userSpaceOnUse" r="1" cy="0" cx="0" id="paint9_radial_7_3802">
<stop stop-color="#0070FF"/>
<stop stop-color="#0070FF" offset="1"/>
</radialGradient>
<radialGradient gradientTransform="translate(80.6093 92.1562) rotate(-10.4912) scale(1.83777 1.83775)" gradientUnits="userSpaceOnUse" r="1" cy="0" cx="0" id="paint10_radial_7_3802">
<stop stop-color="#0070FF"/>
<stop stop-color="#0070FF" offset="1"/>
</radialGradient>
<radialGradient gradientTransform="translate(78.0166 98.9361) rotate(-10.4912) scale(1.83777 1.83773)" gradientUnits="userSpaceOnUse" r="1" cy="0" cx="0" id="paint11_radial_7_3802">
<stop stop-color="#0070FF"/>
<stop stop-color="#0070FF" offset="1"/>
</radialGradient>
<radialGradient gradientTransform="translate(76.796 106.312) rotate(-10.4912) scale(1.83775 1.83779)" gradientUnits="userSpaceOnUse" r="1" cy="0" cx="0" id="paint12_radial_7_3802">
<stop stop-color="#0070FF"/>
<stop stop-color="#0070FF" offset="1"/>
</radialGradient>
<radialGradient gradientTransform="translate(77.1831 113.783) rotate(-10.4912) scale(1.83777)" gradientUnits="userSpaceOnUse" r="1" cy="0" cx="0" id="paint13_radial_7_3802">
<stop stop-color="#0070FF"/>
<stop stop-color="#0070FF" offset="1"/>
</radialGradient>
<radialGradient gradientTransform="translate(79.2188 120.85) rotate(-10.4912) scale(1.83775 1.83778)" gradientUnits="userSpaceOnUse" r="1" cy="0" cx="0" id="paint14_radial_7_3802">
<stop stop-color="#0070FF"/>
<stop stop-color="#0070FF" offset="1"/>
</radialGradient>
<radialGradient gradientTransform="translate(82.7422 127.557) rotate(-10.4912) scale(1.83776 1.83773)" gradientUnits="userSpaceOnUse" r="1" cy="0" cx="0" id="paint15_radial_7_3802">
<stop stop-color="#0070FF"/>
<stop stop-color="#0070FF" offset="1"/>
</radialGradient>
<radialGradient gradientTransform="translate(87.477 133.263) rotate(-10.4912) scale(1.83775 1.83778)" gradientUnits="userSpaceOnUse" r="1" cy="0" cx="0" id="paint16_radial_7_3802">
<stop stop-color="#0070FF"/>
<stop stop-color="#0070FF" offset="1"/>
</radialGradient>
<radialGradient gradientTransform="translate(93.2725 137.787) rotate(-10.4912) scale(1.83777)" gradientUnits="userSpaceOnUse" r="1" cy="0" cx="0" id="paint17_radial_7_3802">
<stop stop-color="#0070FF"/>
<stop stop-color="#0070FF" offset="1"/>
</radialGradient>
<radialGradient gradientTransform="translate(141.577 87.1661) rotate(169.509) scale(1.83777 1.83773)" gradientUnits="userSpaceOnUse" r="1" cy="0" cx="0" id="paint18_radial_7_3802">
<stop stop-color="#0070FF"/>
<stop stop-color="#0070FF" offset="1"/>
</radialGradient>
<radialGradient gradientTransform="translate(145.358 93.6152) rotate(169.509) scale(1.83775 1.83779)" gradientUnits="userSpaceOnUse" r="1" cy="0" cx="0" id="paint19_radial_7_3802">
<stop stop-color="#0070FF"/>
<stop stop-color="#0070FF" offset="1"/>
</radialGradient>
<radialGradient gradientTransform="translate(147.672 100.73) rotate(169.509) scale(1.83777)" gradientUnits="userSpaceOnUse" r="1" cy="0" cx="0" id="paint20_radial_7_3802">
<stop stop-color="#0070FF"/>
<stop stop-color="#0070FF" offset="1"/>
</radialGradient>
<radialGradient gradientTransform="translate(148.302 108.058) rotate(169.509) scale(1.83775 1.83778)" gradientUnits="userSpaceOnUse" r="1" cy="0" cx="0" id="paint21_radial_7_3802">
<stop stop-color="#0070FF"/>
<stop stop-color="#0070FF" offset="1"/>
</radialGradient>
<radialGradient gradientTransform="translate(147.413 115.581) rotate(169.509) scale(1.83776 1.83773)" gradientUnits="userSpaceOnUse" r="1" cy="0" cx="0" id="paint22_radial_7_3802">
<stop stop-color="#0070FF"/>
<stop stop-color="#0070FF" offset="1"/>
</radialGradient>
<radialGradient gradientTransform="translate(145.036 122.604) rotate(169.509) scale(1.83775 1.83778)" gradientUnits="userSpaceOnUse" r="1" cy="0" cx="0" id="paint23_radial_7_3802">
<stop stop-color="#0070FF"/>
<stop stop-color="#0070FF" offset="1"/>
</radialGradient>
<radialGradient gradientTransform="translate(141.245 128.904) rotate(169.509) scale(1.83777)" gradientUnits="userSpaceOnUse" r="1" cy="0" cx="0" id="paint24_radial_7_3802">
<stop stop-color="#0070FF"/>
<stop stop-color="#0070FF" offset="1"/>
</radialGradient>
</defs>
</svg>