<svg width="379" height="206" viewBox="0 0 379 206" fill="none" xmlns="http://www.w3.org/2000/svg">
<path d="M-34 205.04C-34 205.04 36.5 184.74 51.5 124.74C57.1 102.44 80.6 25.1402 113.3 43.6402C145.9 62.1402 157.3 124.74 188.2 100.14C219.1 75.4402 235.8 -4.85986 265.8 1.34014C295.8 7.54014 313.4 81.5402 336.4 85.9402C359.3 90.4402 377.8 54.2402 377.8 54.2402" stroke="#5D8AA8" stroke-opacity="0.15" stroke-width="2" stroke-miterlimit="10"/>
<path d="M-33.5 191.04C-33.5 191.04 68.9 197.94 99.3 154.24C135 102.84 141.7 -5.45981 173 16.9402C204.2 39.2402 233.3 141.94 273.4 129.64C313.6 117.34 359.4 2.44019 359.4 2.44019" stroke="#5D8AA8" stroke-opacity="0.15" stroke-width="2" stroke-miterlimit="10"/>
</svg>
